<?xml version="1.0" encoding="utf-8"?>
<!-- Generator: Adobe Illustrator 27.5.0, SVG Export Plug-In . SVG Version: 6.00 Build 0)  -->
<svg version="1.1" id="Group_1238" xmlns="http://www.w3.org/2000/svg" xmlns:xlink="http://www.w3.org/1999/xlink" x="0px" y="0px"
	 viewBox="0 0 63.1 56.5" style="enable-background:new 0 0 63.1 56.5;" xml:space="preserve">
<style type="text/css">
	.st0{clip-path:url(#SVGID_00000119817049732500169040000002259597736060606630_);}
	.st1{fill:#003587;}
</style>
<g>
	<defs>
		<rect id="SVGID_1_" width="63.1" height="56.5"/>
	</defs>
	<clipPath id="SVGID_00000057131889460332361550000000150465632180820663_">
		<use xlink:href="#SVGID_1_"  style="overflow:visible;"/>
	</clipPath>
	<g style="clip-path:url(#SVGID_00000057131889460332361550000000150465632180820663_);">
		<path class="st1" d="M18.5,12.4c-0.5,0-0.9,0.4-0.9,0.9c0,0.5,0.4,0.9,0.9,0.9h20.1c0.5,0,0.9-0.4,0.9-0.9c0,0,0,0,0,0
			c0-0.5-0.4-0.9-0.9-0.9H18.5C18.5,12.4,18.5,12.4,18.5,12.4z"/>
		<path class="st1" d="M18.5,18.8h12.7c0,0,0,0,0,0c0.5,0,0.9-0.4,0.9-0.9c0-0.5-0.4-0.9-0.9-0.9H18.5c-0.5,0-0.9,0.4-0.9,0.9
			C17.5,18.4,18,18.8,18.5,18.8z"/>
		<path class="st1" d="M38.6,21.5H18.5c0,0,0,0,0,0c-0.5,0-0.9,0.4-0.9,0.9c0,0.5,0.4,0.9,0.9,0.9h20.1c0.5,0,0.9-0.4,0.9-0.9
			c0,0,0,0,0,0C39.5,21.9,39.1,21.5,38.6,21.5z"/>
		<path class="st1" d="M31.2,26.1H18.5c-0.5,0-0.9,0.4-0.9,0.9c0,0.5,0.4,0.9,0.9,0.9h12.7c0,0,0,0,0,0c0.5,0,0.9-0.4,0.9-0.9
			C32.1,26.5,31.7,26.1,31.2,26.1z"/>
		<path class="st1" d="M18.5,37h12.7c0,0,0,0,0,0c0.5,0,0.9-0.4,0.9-0.9c0-0.5-0.4-0.9-0.9-0.9H18.5c0,0,0,0,0,0
			c-0.5,0-0.9,0.4-0.9,0.9C17.5,36.6,18,37,18.5,37z"/>
		<path class="st1" d="M62.2,8.5l-0.7-0.7c-1.2-1.2-3.1-1.2-4.4,0l-1.5,1.5c0,0,0,0,0,0c0,0,0,0,0,0L55.1,10c-0.8-0.6-1.9-1-3-1
			h-6.1c0,0,0-0.1,0-0.1c0-0.1,0-0.1,0-0.2c0-0.1-0.1-0.2-0.2-0.3l-8.1-8.1C37.5,0.1,37.3,0,37,0H14.6c-2,0-3.7,1.6-3.7,3.7V9H4.9
			C2.2,9,0,11.2,0,13.9v28.5c0,2.7,2.2,4.9,4.9,4.9h18.2v3.9h-3.7c-1.5,0-2.6,1.2-2.6,2.6v1.7c0,0,0,0,0,0c0,0.5,0.4,0.9,0.9,0.9
			h21.7v0c0.5,0,0.9-0.4,0.9-0.9v-1.7c0-1.5-1.2-2.6-2.6-2.6h-3.7v-3.9h18.2v0c2.7,0,4.9-2.2,4.9-4.9v-2.8c0,0,0,0,0-0.1
			c0,0,0,0,0,0c0,0,0,0,0-0.1V18.1l3.7-3.7c0,0,0,0,0,0l1.5-1.5C63.4,11.7,63.4,9.7,62.2,8.5z M33,45.5C33,45.5,33,45.5,33,45.5
			l-9,0c0,0,0,0,0,0s0,0,0,0H4.9c-1.7,0-3-1.4-3-3v-2h10c0,0,0,0,0,0h33.3c0,0,0,0,0,0c0,0,0,0,0,0h10v2c0,1.7-1.4,3-3,3L33,45.5
			C33,45.5,33,45.5,33,45.5z M33,53.1C33,53.1,33,53.1,33,53.1C33.1,53.1,33.1,53.1,33,53.1l4.6,0c0.4,0,0.8,0.4,0.8,0.8v0.8H18.6
			l0-0.8c0,0,0,0,0,0c0-0.4,0.4-0.8,0.8-0.8h4.5c0,0,0.1,0,0.1,0v0c0,0,0,0,0,0c0,0,0,0,0.1,0L33,53.1C33,53.1,33,53.1,33,53.1z
			 M24.9,51.2v-3.9h7.2v3.9H24.9z M4.9,10.9H11v27.8H1.8V13.9C1.8,12.2,3.2,10.9,4.9,10.9z M39.8,30.3l0.4-1.8l1.4,1.4L39.8,30.3z
			 M39.8,8.2c-1,0-1.8-0.8-1.8-1.8V3.1l5,5H39.8z M46.1,19v-8.2h6.1c0.6,0,1.1,0.2,1.6,0.5L46.1,19z M39.8,10h4.5v10.9L39.1,26
			c0,0,0,0,0,0c0,0-0.1,0.1-0.1,0.2c0,0,0,0-0.1,0.1c0,0.1,0,0.1-0.1,0.2c0,0,0,0,0,0l-1,4.2H18.5c0,0,0,0,0,0
			c-0.5,0-0.9,0.4-0.9,0.9c0,0.5,0.4,0.9,0.9,0.9h20.1c0,0,0,0,0,0c0,0,0,0,0,0c0,0,0.1,0,0.1,0l0,0l4.9-1.2
			c0.2-0.1,0.4-0.2,0.6-0.4l0,0v7.8H12.8V3.7c0-1,0.8-1.8,1.8-1.8h21.5v4.5C36.1,8.3,37.7,10,39.8,10z M46.1,38.6V29l9.1-9.1v18.7
			H46.1z M55.4,17.1L44.5,28c0,0,0,0,0,0l-1.1,1.1L41,26.7L55.7,12c0,0,0,0,0,0c0,0,0,0,0,0l0.6-0.6l2.4,2.4L55.4,17.1
			C55.5,17,55.4,17,55.4,17.1z M60.9,11.6L60,12.4L57.6,10l0.9-0.9c0.5-0.5,1.3-0.5,1.7,0l0.7,0.7c0,0,0,0,0,0
			C61.4,10.3,61.4,11.1,60.9,11.6z"/>
		<path class="st1" d="M55.9,14.1c-0.4-0.3-1-0.3-1.3,0.1L43.8,25c-0.2,0.2-0.3,0.4-0.3,0.6c0,0.2,0.1,0.5,0.3,0.6
			c0.2,0.2,0.4,0.3,0.6,0.3c0.2,0,0.5-0.1,0.7-0.3l10.8-10.8c0,0,0,0,0.1-0.1C56.3,15.1,56.3,14.5,55.9,14.1z"/>
		<path class="st1" d="M32.9,42h-8.7c0,0,0,0,0,0c-0.5,0-0.9,0.4-0.9,0.9c0,0.5,0.4,0.9,0.9,0.9h8.7c0.5,0,0.9-0.4,0.9-0.9
			c0,0,0,0,0,0C33.8,42.4,33.4,42,32.9,42z"/>
	</g>
</g>
</svg>
