<svg xmlns="http://www.w3.org/2000/svg" width="77.456" height="56" viewBox="0 0 77.456 56">
  <g id="Fast_Money_Icon" data-name="Fast Money Icon" transform="translate(1.5 -10.5)">
    <path id="path5662" d="M19.929-39.406A19.817,19.817,0,0,0,0-19.7,19.817,19.817,0,0,0,19.929,0,19.817,19.817,0,0,0,39.858-19.7,19.817,19.817,0,0,0,19.929-39.406Z" transform="translate(27.858 58.233)" fill="none" stroke="#fab91b" stroke-linecap="round" stroke-linejoin="round" stroke-width="3"/>
    <path id="path5662-2" data-name="path5662" d="M26.591-53A26.546,26.546,0,0,0,0-26.5,26.546,26.546,0,0,0,26.591,0,26.546,26.546,0,0,0,53.182-26.5,26.546,26.546,0,0,0,26.591-53Z" transform="translate(21.273 65)" fill="none" stroke="#21409a" stroke-linecap="round" stroke-linejoin="round" stroke-width="3"/>
    <path id="path5666" d="M0-1.375A7.614,7.614,0,0,0,5.165,0c5.641-.037,7.692-7.77,2.146-9.708A20.3,20.3,0,0,1,1.772-12.3C-.356-13.952.421-18.19,3.553-19.121a6.86,6.86,0,0,1,5.623,1" transform="translate(42.498 48.128)" fill="none" stroke="#21409a" stroke-linecap="round" stroke-linejoin="round" stroke-width="3"/>
    <path id="path5670" d="M0-24.838V0" transform="translate(47.787 50.949)" fill="none" stroke="#21409a" stroke-linecap="round" stroke-linejoin="round" stroke-width="3"/>
    <path id="path5674" d="M14.963,0H0" transform="translate(6.051 38.53)" fill="none" stroke="#21409a" stroke-linecap="round" stroke-linejoin="round" stroke-width="3"/>
    <path id="path5678" d="M8.862,0H0" transform="translate(13.995 48.203)" fill="none" stroke="#21409a" stroke-linecap="round" stroke-linejoin="round" stroke-width="3"/>
    <path id="path5682" d="M5.951,0H0" transform="translate(0 48.203)" fill="none" stroke="#21409a" stroke-linecap="round" stroke-linejoin="round" stroke-width="3"/>
    <path id="path5690" d="M18.945,0H0" transform="translate(10.383 57.847)" fill="none" stroke="#21409a" stroke-linecap="round" stroke-linejoin="round" stroke-width="3"/>
    <path id="path5694" d="M9.011,0H0" transform="translate(13.475 28.858)" fill="none" stroke="#21409a" stroke-linecap="round" stroke-linejoin="round" stroke-width="3"/>
    <path id="path5698" d="M5.951,0H0" transform="translate(0 28.858)" fill="none" stroke="#21409a" stroke-linecap="round" stroke-linejoin="round" stroke-width="3"/>
    <path id="path5702" d="M17.98,0H0" transform="translate(11.349 19.213)" fill="none" stroke="#21409a" stroke-linecap="round" stroke-linejoin="round" stroke-width="3"/>
  </g>
</svg>
