<svg xmlns="http://www.w3.org/2000/svg" width="48.205" height="65" viewBox="0 0 48.205 65">
  <g id="Group_33" data-name="Group 33" transform="translate(-211.898)">
    <path id="Vector" d="M0,24.1A24.1,24.1,0,1,1,43.407,38.536L26.515,62.463H36.737a1.269,1.269,0,0,1,0,2.537H11.366a1.269,1.269,0,0,1,0-2.537H21.69L4.8,38.536A23.9,23.9,0,0,1,0,24.1Zm2.537,0a21.383,21.383,0,0,0,4.3,12.926l.021.029L24.1,61.481,41.344,37.058l.021-.029A21.566,21.566,0,1,0,2.537,24.1Z" transform="translate(211.898)" fill="#21409a"/>
    <path id="Vector-2" data-name="Vector" d="M0,16.491A16.491,16.491,0,1,1,16.491,32.982,16.51,16.51,0,0,1,0,16.491Zm2.537,0A13.954,13.954,0,1,0,16.491,2.537,13.97,13.97,0,0,0,2.537,16.491Z" transform="translate(219.458 7.662)" fill="#fab91b"/>
    <path id="path5666" d="M0-.965A5.271,5.271,0,0,0,3.6,0C7.523-.027,8.95-5.45,5.089-6.81A14.083,14.083,0,0,1,1.234-8.628c-1.482-1.158-.941-4.13,1.24-4.783a4.748,4.748,0,0,1,3.915.7" transform="translate(232.21 31.23)" fill="none" stroke="#21409a" stroke-linecap="round" stroke-linejoin="round" stroke-width="3"/>
    <path id="path5670" d="M0-17.52V0" transform="translate(235.892 33.262)" fill="none" stroke="#21409a" stroke-linecap="round" stroke-linejoin="round" stroke-width="3"/>
  </g>
</svg>
