<svg xmlns="http://www.w3.org/2000/svg" width="79.387" height="55" viewBox="0 0 79.387 55">
  <g id="Group_42" data-name="Group 42" transform="translate(0 -10)">
    <path id="Vector_2_Stroke_" data-name="Vector 2 (Stroke)" d="M54.848,2.887H0V0H54.848Z" transform="translate(1.443 43.197)" fill="#21409a" fill-rule="evenodd"/>
    <path id="Vector_4_Stroke_" data-name="Vector 4 (Stroke)" d="M0,1.443A1.443,1.443,0,0,1,1.443,0h33.2a1.443,1.443,0,1,1,0,2.887H1.443A1.443,1.443,0,0,1,0,1.443Z" transform="translate(15.873 61.961)" fill="#21409a" fill-rule="evenodd"/>
    <path id="Rectangle_4_Stroke_" data-name="Rectangle 4 (Stroke)" d="M5.571,2.887,3.72,10.1H17.93L16.08,2.887Zm16.08,10.1H0L3.331,0H18.32Z" transform="translate(23.094 51.858)" fill="#21409a" fill-rule="evenodd"/>
    <path id="Line_1_Stroke_" data-name="Line 1 (Stroke)" d="M0,1.443A1.443,1.443,0,0,1,1.443,0H2.887a1.443,1.443,0,0,1,0,2.887H1.443A1.443,1.443,0,0,1,0,1.443Z" transform="translate(31.756 47.528)" fill="#fab91b" fill-rule="evenodd"/>
    <g id="Group_41" data-name="Group 41">
      <path id="Rectangle_5_Stroke_" data-name="Rectangle 5 (Stroke)" d="M20.207,2.887H4.33A1.443,1.443,0,0,0,2.887,4.33V35.7A1.443,1.443,0,0,0,4.33,37.148H20.207A1.443,1.443,0,0,0,21.651,35.7V4.33a1.443,1.443,0,0,0-1.443-1.443Zm0-2.887a4.33,4.33,0,0,1,4.33,4.33V35.7a4.33,4.33,0,0,1-4.33,4.33H4.33A4.33,4.33,0,0,1,0,35.7V4.33A4.33,4.33,0,0,1,4.33,0Z" transform="translate(54.849 24.966)" fill="#fab91b" fill-rule="evenodd"/>
      <path id="Rectangle_6_Stroke_" data-name="Rectangle 6 (Stroke)" d="M1.788.839A1.443,1.443,0,0,1,3.1,0h8.047a1.443,1.443,0,0,1,1.311.839l1.788,3.874-2.621,1.21-1.4-3.036h-6.2l-1.4,3.036L0,4.713Z" transform="matrix(-1, 0, 0, -1, 74.239, 31.574)" fill="#fab91b" fill-rule="evenodd"/>
      <path id="Line_2_Stroke_" data-name="Line 2 (Stroke)" d="M0,1.443A1.443,1.443,0,0,1,1.443,0H5.318a1.443,1.443,0,0,1,0,2.887H1.443A1.443,1.443,0,0,1,0,1.443Z" transform="translate(63.732 57.099)" fill="#21409a" fill-rule="evenodd"/>
    </g>
    <path id="Subtract" d="M2.887,4.33V40.414A1.443,1.443,0,0,0,4.33,41.858H54.848v2.887H4.33A4.33,4.33,0,0,1,0,40.414V4.33A4.33,4.33,0,0,1,4.33,0H63.508a4.33,4.33,0,0,1,4.33,4.33V14.965H64.952V4.33a1.443,1.443,0,0,0-1.443-1.443H4.33A1.443,1.443,0,0,0,2.887,4.33Z" transform="translate(0 10)" fill="#21409a" fill-rule="evenodd"/>
  </g>
</svg>
