<svg xmlns="http://www.w3.org/2000/svg" width="144.711" height="27.501" viewBox="0 0 144.711 27.501">
  <g id="Layer_2" data-name="Layer 2" transform="translate(0 -0.01)">
    <g id="Layer_1" data-name="Layer 1" transform="translate(0 0.01)">
      <g id="Group_673" data-name="Group 673">
        <g id="Layer_2-2" data-name="Layer 2" transform="translate(0 0.022)">
          <g id="Layer_1-2" data-name="Layer 1" transform="translate(0 0)">
            <path id="Path_8181" data-name="Path 8181" d="M62.038,6.661C38.47,7.931,18.488,14.888,5.777,26.6a3.452,3.452,0,0,1-4.664-5.091C17.139,6.751,39.055,1.514,57.34.03l3.012.348L57.61,1.693l4.428,2.315-1.506.933,1.731,1.7h-.225Z" transform="translate(0 -0.03)" fill="#fab91b"/>
          </g>
        </g>
        <g id="Layer_2-3" data-name="Layer 2" transform="translate(79.098)">
          <g id="Layer_1-3" data-name="Layer 1" transform="translate(0)">
            <path id="Path_765" data-name="Path 765" d="M70.38,4.82l4.945-.944-3.36-1.854,2.1-1.068L73.325.01c26.389,1.956,50.855,9.969,61.611,20.331a3.45,3.45,0,0,1-4.788,4.968C120.887,16.4,98.623,9.113,74.819,7.045L70.38,4.82Z" transform="translate(-70.38 -0.01)" fill="#fab91b"/>
          </g>
        </g>
      </g>
    </g>
  </g>
</svg>
