<svg xmlns="http://www.w3.org/2000/svg" width="27" height="27" viewBox="0 0 27 27"><g><g><path fill="#fff" d="M19.548 8.504a1.063 1.063 0 1 1-2.125-.002 1.063 1.063 0 0 1 2.125.002zm-2.833 4.727a2.952 2.952 0 1 0-5.903 0 2.952 2.952 0 0 0 5.903 0zm1.596 0a4.548 4.548 0 1 1-9.095 0 4.548 4.548 0 0 1 9.095 0zM13.763 5.97c-2.364 0-2.645.009-3.578.052a4.903 4.903 0 0 0-1.645.305 2.933 2.933 0 0 0-1.68 1.681 4.901 4.901 0 0 0-.305 1.644c-.043.935-.052 1.214-.052 3.579 0 2.364.01 2.645.052 3.578.007.562.11 1.118.305 1.645a2.933 2.933 0 0 0 1.68 1.68 4.9 4.9 0 0 0 1.645.305c.933.043 1.214.052 3.578.052 2.365 0 2.645-.01 3.579-.052a4.9 4.9 0 0 0 1.644-.305 2.933 2.933 0 0 0 1.68-1.68 4.9 4.9 0 0 0 .305-1.645c.043-.934.052-1.214.052-3.578 0-2.365-.009-2.645-.052-3.579a4.9 4.9 0 0 0-.305-1.644 2.933 2.933 0 0 0-1.68-1.68 4.903 4.903 0 0 0-1.644-.305c-.935-.043-1.214-.052-3.579-.052zm-.002-1.594c2.404 0 2.706.01 3.65.053a6.499 6.499 0 0 1 2.153.411 4.528 4.528 0 0 1 2.593 2.59 6.5 6.5 0 0 1 .412 2.152c.043.944.053 1.246.053 3.65 0 2.405-.01 2.708-.053 3.652a6.5 6.5 0 0 1-.412 2.152 4.528 4.528 0 0 1-2.589 2.59 6.5 6.5 0 0 1-2.152.41c-.944.044-1.246.054-3.651.054s-2.707-.01-3.651-.053a6.5 6.5 0 0 1-2.152-.412 4.528 4.528 0 0 1-2.59-2.59 6.501 6.501 0 0 1-.411-2.151c-.043-.944-.053-1.247-.053-3.651 0-2.405.01-2.707.053-3.651a6.501 6.501 0 0 1 .412-2.152A4.528 4.528 0 0 1 7.96 4.84a6.499 6.499 0 0 1 2.152-.412c.944-.043 1.246-.053 3.651-.053zM3.974.276A3.167 3.167 0 0 0 .809 3.441V23.02a3.167 3.167 0 0 0 3.165 3.166h19.582a3.167 3.167 0 0 0 3.165-3.166V3.441a3.167 3.167 0 0 0-3.17-3.165z"/></g></g></svg>