<svg xmlns="http://www.w3.org/2000/svg" width="26" height="27" viewBox="0 0 26 27"><g><g><path fill="#fff" d="M6.337 4.767a1.98 1.98 0 1 1-.026 3.948h-.026a1.98 1.98 0 1 1 .05-3.948zm11.767 16.932v-6.112c0-1.536-.55-2.584-1.924-2.584a2.078 2.078 0 0 0-1.948 1.389c-.097.299-.14.613-.125.927v6.38H10.31s.05-10.352 0-11.424h3.796v1.617a3.772 3.772 0 0 1 3.423-1.886c2.498 0 4.372 1.633 4.372 5.142v6.55zm-13.694 0V10.275H8.21V21.7zM22.834.276H3.254A3.17 3.17 0 0 0 .086 3.442v19.581a3.17 3.17 0 0 0 3.166 3.166h19.581A3.17 3.17 0 0 0 26 23.023V3.443A3.17 3.17 0 0 0 22.834.275z"/></g></g></svg>