<svg xmlns="http://www.w3.org/2000/svg" width="86.194" height="81.714" viewBox="0 0 86.194 81.714">
  <g id="noun-car-repair-4428012" transform="translate(-4.726 -16.229)">
    <g id="Group_754" data-name="Group 754" transform="translate(4.98 65.092)">
      <path id="Path_10268" data-name="Path 10268" d="M86.813,286.841H81.925a.974.974,0,0,1,0-1.947h4.888a1.953,1.953,0,0,0,1.947-1.947v-6.485a8.428,8.428,0,0,0-8.413-8.413H56.686v16.846H65.7a.974.974,0,1,1,0,1.947H55.712a.964.964,0,0,1-.974-.974V267.074a.964.964,0,0,1,.974-.974H80.328a10.368,10.368,0,0,1,10.361,10.361v6.485A3.877,3.877,0,0,1,86.813,286.841Zm-46.837,0H29.986a.974.974,0,0,1,0-1.947H39V268.047H6.947v12.386a4.472,4.472,0,0,0,4.46,4.46h2.356a.974.974,0,0,1,0,1.947H11.388A6.4,6.4,0,0,1,5,280.433v-13.36a.964.964,0,0,1,.974-.974h34a.964.964,0,0,1,.974.974v18.793A.977.977,0,0,1,39.977,286.841Z" transform="translate(-5 -266.1)" fill="#21409a"/>
      <path id="Path_10268_-_Outline" data-name="Path 10268 - Outline" d="M86.813,287.091H81.925a1.224,1.224,0,0,1,0-2.447h4.888a1.7,1.7,0,0,0,1.7-1.7v-6.485a8.172,8.172,0,0,0-8.163-8.163H56.936v16.346H65.7a1.224,1.224,0,0,1,0,2.447H55.712a1.211,1.211,0,0,1-1.224-1.224V267.074a1.211,1.211,0,0,1,1.224-1.224H80.328a10.623,10.623,0,0,1,10.611,10.611v6.485a4.127,4.127,0,0,1-4.125,4.145Zm-4.888-1.947a.724.724,0,0,0,0,1.447h4.888a3.639,3.639,0,0,0,3.625-3.645v-6.485A10.122,10.122,0,0,0,80.328,266.35H55.712a.716.716,0,0,0-.724.724v18.793a.716.716,0,0,0,.724.724H65.7a.724.724,0,0,0,0-1.447H56.436V267.8H80.348a8.673,8.673,0,0,1,8.663,8.663v6.485a2.2,2.2,0,0,1-2.2,2.2Zm-41.949,1.947H29.986a1.224,1.224,0,0,1,0-2.447h8.767V268.3H7.2v12.136a4.214,4.214,0,0,0,4.21,4.21h2.356a1.224,1.224,0,0,1,0,2.447H11.388a6.655,6.655,0,0,1-6.638-6.657v-13.36a1.211,1.211,0,0,1,1.224-1.224h34a1.211,1.211,0,0,1,1.224,1.224v18.793A1.225,1.225,0,0,1,39.977,287.091Zm-9.991-1.947a.724.724,0,0,0,0,1.447h9.991a.725.725,0,0,0,.724-.724V267.074a.716.716,0,0,0-.724-.724h-34a.716.716,0,0,0-.724.724v13.36a6.154,6.154,0,0,0,6.138,6.157h2.376a.724.724,0,0,0,0-1.447H11.407a4.715,4.715,0,0,1-4.71-4.71V267.8H39.253v17.346Z" transform="translate(-5 -266.1)" fill="#21409a"/>
    </g>
    <g id="Group_755" data-name="Group 755" transform="translate(12.79 75.784)">
      <path id="Path_10269" data-name="Path 10269" d="M54.175,339.17a9.085,9.085,0,1,1,9.075-9.095A9.084,9.084,0,0,1,54.175,339.17Zm0-16.222a7.128,7.128,0,1,0,7.108,7.128A7.148,7.148,0,0,0,54.175,322.947Z" transform="translate(-45.1 -321)" fill="#21409a"/>
      <path id="Path_10269_-_Outline" data-name="Path 10269 - Outline" d="M54.175,339.42a9.34,9.34,0,1,1,9.325-9.345A9.336,9.336,0,0,1,54.175,339.42Zm0-18.17a8.822,8.822,0,1,0,6.245,2.587A8.845,8.845,0,0,0,54.175,321.25Zm-.019,16.2a7.378,7.378,0,1,1,7.378-7.378A7.386,7.386,0,0,1,54.156,337.453Zm.019-14.255a6.878,6.878,0,1,0,6.858,6.878A6.9,6.9,0,0,0,54.175,323.2Z" transform="translate(-45.1 -321)" fill="#21409a"/>
    </g>
    <g id="Group_756" data-name="Group 756" transform="translate(64.709 75.803)">
      <path id="Path_10270" data-name="Path 10270" d="M320.775,339.25a9.075,9.075,0,1,1,9.075-9.075A9.084,9.084,0,0,1,320.775,339.25Zm0-16.222a7.128,7.128,0,1,0,7.128,7.128A7.131,7.131,0,0,0,320.775,323.028Z" transform="translate(-311.7 -321.1)" fill="#21409a"/>
      <path id="Path_10270_-_Outline" data-name="Path 10270 - Outline" d="M320.775,339.5a9.322,9.322,0,1,1,6.6-2.734A9.336,9.336,0,0,1,320.775,339.5Zm0-18.15a8.827,8.827,0,1,0,8.825,8.825A8.835,8.835,0,0,0,320.775,321.35Zm0,16.184a7.378,7.378,0,1,1,7.378-7.378A7.386,7.386,0,0,1,320.775,337.534Zm0-14.255a6.878,6.878,0,1,0,6.878,6.878A6.886,6.886,0,0,0,320.775,323.278Z" transform="translate(-311.7 -321.1)" fill="#21409a"/>
    </g>
    <g id="Group_757" data-name="Group 757" transform="translate(4.976 47.136)">
      <path id="Path_10271" data-name="Path 10271" d="M5.954,193.823a1,1,0,0,1-.643-.234.984.984,0,0,1-.1-1.383L20.58,174.679a2.252,2.252,0,0,1,1.714-.779h9.621a.964.964,0,0,1,.974.974v17.975a.974.974,0,1,1-1.947,0v-17H22.313a.314.314,0,0,0-.253.117L6.694,193.492A1.074,1.074,0,0,1,5.954,193.823Z" transform="translate(-4.976 -173.9)" fill="#21409a"/>
      <path id="Path_10271_-_Outline" data-name="Path 10271 - Outline" d="M31.914,194.073a1.211,1.211,0,0,1-1.224-1.224V176.1H22.313c-.031,0-.033,0-.071.038L6.871,193.668a1.321,1.321,0,0,1-.917.4,1.254,1.254,0,0,1-.8-.288l-.007-.005a1.208,1.208,0,0,1-.42-.842,1.235,1.235,0,0,1,.3-.893l15.367-17.529a2.51,2.51,0,0,1,1.9-.864h9.621a1.211,1.211,0,0,1,1.224,1.224v17.975A1.211,1.211,0,0,1,31.914,194.073Zm-9.6-18.475H31.19v17.251a.724.724,0,1,0,1.447,0V174.874a.716.716,0,0,0-.724-.724H22.293a1.99,1.99,0,0,0-1.527.695L5.4,192.371a.737.737,0,0,0-.175.532.712.712,0,0,0,.244.494.755.755,0,0,0,.483.176.829.829,0,0,0,.558-.252l15.371-17.533A.556.556,0,0,1,22.313,175.6Z" transform="translate(-4.976 -173.9)" fill="#21409a"/>
    </g>
    <g id="Group_758" data-name="Group 758" transform="translate(30.96 47.136)">
      <path id="Path_10272" data-name="Path 10272" d="M185.237,193.823a1.006,1.006,0,0,1-.74-.331l-15.366-17.527a.314.314,0,0,0-.253-.117h-5.745a.974.974,0,1,1,0-1.947h5.745a2.223,2.223,0,0,1,1.714.779l15.366,17.527a.985.985,0,0,1-.1,1.383A.919.919,0,0,1,185.237,193.823Zm-37.839,0a.964.964,0,0,1-.974-.974v-17h-7.05a.974.974,0,1,1,0-1.947H147.4a.964.964,0,0,1,.974.974v17.975A.989.989,0,0,1,147.4,193.823Z" transform="translate(-138.4 -173.9)" fill="#21409a"/>
      <path id="Path_10272_-_Outline" data-name="Path 10272 - Outline" d="M185.237,194.073a1.255,1.255,0,0,1-.925-.413l-15.363-17.524c-.038-.038-.039-.038-.071-.038h-5.745a1.224,1.224,0,0,1,0-2.447h5.745a2.483,2.483,0,0,1,1.9.867l15.363,17.524a1.238,1.238,0,0,1-.118,1.733A1.171,1.171,0,0,1,185.237,194.073Zm-22.1-19.923a.724.724,0,1,0,0,1.447h5.745a.556.556,0,0,1,.43.19l.011.012,15.366,17.527a.751.751,0,0,0,.552.246.668.668,0,0,0,.457-.171.731.731,0,0,0,.074-1.033L170.4,174.844a1.986,1.986,0,0,0-1.526-.694ZM147.4,194.073a1.211,1.211,0,0,1-1.224-1.224V176.1h-6.8a1.224,1.224,0,1,1,0-2.447H147.4a1.211,1.211,0,0,1,1.224,1.224v17.975A1.24,1.24,0,0,1,147.4,194.073Zm-8.024-19.923a.724.724,0,1,0,0,1.447h7.3v17.251a.716.716,0,0,0,.724.724.743.743,0,0,0,.724-.724V174.874a.716.716,0,0,0-.724-.724Z" transform="translate(-138.4 -173.9)" fill="#21409a"/>
    </g>
    <g id="Group_759" data-name="Group 759" transform="translate(33.277 16.479)">
      <path id="Path_10273" data-name="Path 10273" d="M164.848,44.468a14.554,14.554,0,0,1-5.784-27.907.96.96,0,0,1,.915.078.982.982,0,0,1,.448.818v9.582a4.44,4.44,0,1,0,8.88,0V17.457a.938.938,0,0,1,.448-.818.96.96,0,0,1,.915-.078,14.554,14.554,0,0,1-5.823,27.907ZM158.46,19.034a12.6,12.6,0,1,0,12.736,0v8a6.388,6.388,0,1,1-12.775,0l.039-8Z" transform="translate(-150.3 -16.479)" fill="#21409a"/>
      <path id="Path_10273_-_Outline" data-name="Path 10273 - Outline" d="M164.848,44.718a14.8,14.8,0,0,1-5.887-28.385,1.133,1.133,0,0,1,.479-.1,1.236,1.236,0,0,1,1.236,1.228v9.582a4.19,4.19,0,1,0,8.38,0V17.457a1.187,1.187,0,0,1,.566-1.03,1.244,1.244,0,0,1,.67-.2,1.132,1.132,0,0,1,.48.1,14.813,14.813,0,0,1-5.926,28.385ZM159.44,16.729a.636.636,0,0,0-.271.059l-.006,0a14.317,14.317,0,1,0,11.407,0l-.006,0a.636.636,0,0,0-.271-.059.756.756,0,0,0-.4.12l-.007,0a.692.692,0,0,0-.327.6v9.582a4.69,4.69,0,1,1-9.38,0V17.457a.73.73,0,0,0-.333-.608A.756.756,0,0,0,159.44,16.729Zm5.388,26.022a12.847,12.847,0,0,1-6.495-23.933l.379-.222-.041,8.443a6.138,6.138,0,0,0,12.275,0V18.6l.376.22a12.847,12.847,0,0,1-6.494,23.933Zm-6.62-23.27a12.363,12.363,0,1,0,13.239,0v7.56a6.638,6.638,0,1,1-13.275,0Z" transform="translate(-150.3 -16.479)" fill="#21409a"/>
    </g>
    <g id="Group_760" data-name="Group 760" transform="translate(38.983 40.398)">
      <path id="Path_10274" data-name="Path 10274" d="M188.442,196.595a8.847,8.847,0,0,1-8.842-8.842V140.274a.974.974,0,0,1,1.947,0v47.479a6.894,6.894,0,0,0,13.788,0V140.274a.974.974,0,0,1,1.947,0v47.479A8.847,8.847,0,0,1,188.442,196.595Z" transform="translate(-179.6 -139.3)" fill="#21409a"/>
      <path id="Path_10274_-_Outline" data-name="Path 10274 - Outline" d="M188.442,196.845a9.1,9.1,0,0,1-9.092-9.092V140.274a1.224,1.224,0,0,1,2.447,0v47.479a6.644,6.644,0,0,0,13.288,0V140.274a1.224,1.224,0,0,1,2.447,0v47.479A9.1,9.1,0,0,1,188.442,196.845Zm-7.868-57.295a.716.716,0,0,0-.724.724v47.479a8.592,8.592,0,1,0,17.183,0V140.274a.724.724,0,0,0-1.447,0v47.479a7.144,7.144,0,0,1-14.288,0V140.274A.716.716,0,0,0,180.574,139.55Z" transform="translate(-179.6 -139.3)" fill="#21409a"/>
    </g>
    <g id="Group_761" data-name="Group 761" transform="translate(43.015 83.106)">
      <path id="Path_10275" data-name="Path 10275" d="M205.11,368.22a4.81,4.81,0,1,1,4.81-4.81A4.821,4.821,0,0,1,205.11,368.22Zm0-7.673a2.863,2.863,0,1,0,2.863,2.863A2.867,2.867,0,0,0,205.11,360.547Z" transform="translate(-200.3 -358.6)" fill="#21409a"/>
      <path id="Path_10275_-_Outline" data-name="Path 10275 - Outline" d="M205.11,368.47a5.06,5.06,0,1,1,5.06-5.06A5.066,5.066,0,0,1,205.11,368.47Zm0-9.621a4.56,4.56,0,1,0,4.56,4.56A4.565,4.565,0,0,0,205.11,358.85Zm0,7.673a3.113,3.113,0,1,1,3.113-3.113A3.116,3.116,0,0,1,205.11,366.523Zm0-5.726a2.613,2.613,0,1,0,2.613,2.613A2.616,2.616,0,0,0,205.11,360.8Z" transform="translate(-200.3 -358.6)" fill="#21409a"/>
    </g>
    <g id="Group_762" data-name="Group 762" transform="translate(44.047 48.305)">
      <path id="Path_10276" data-name="Path 10276" d="M209.378,210.943a3.782,3.782,0,0,1-3.778-3.778V183.678a3.778,3.778,0,0,1,7.556,0v23.506A3.778,3.778,0,0,1,209.378,210.943Zm0-29.1a1.829,1.829,0,0,0-1.831,1.831v23.506a1.831,1.831,0,1,0,3.661,0V183.678A1.828,1.828,0,0,0,209.378,181.847Z" transform="translate(-205.6 -179.9)" fill="#21409a"/>
      <path id="Path_10276_-_Outline" data-name="Path 10276 - Outline" d="M209.378,211.193a4.033,4.033,0,0,1-4.028-4.028V183.678a4.028,4.028,0,0,1,8.056,0v23.506A4.023,4.023,0,0,1,209.378,211.193Zm0-31.043a3.532,3.532,0,0,0-3.528,3.528v23.487a3.528,3.528,0,0,0,7.056.019V183.678A3.532,3.532,0,0,0,209.378,180.15Zm0,29.115a2.083,2.083,0,0,1-2.081-2.081V183.678a2.081,2.081,0,1,1,4.161,0v23.506A2.083,2.083,0,0,1,209.378,209.265Zm0-27.167a1.582,1.582,0,0,0-1.581,1.581v23.506a1.581,1.581,0,1,0,3.161,0V183.678A1.582,1.582,0,0,0,209.378,182.1Z" transform="translate(-205.6 -179.9)" fill="#21409a"/>
    </g>
  </g>
</svg>
