<svg xmlns="http://www.w3.org/2000/svg" width="65.043" height="62.914" viewBox="0 0 65.043 62.914">
  <g id="noun-house-construction-4427729" transform="translate(0.25 0.25)">
    <g id="Group_805" data-name="Group 805" transform="translate(0 0)">
      <path id="Path_10306" data-name="Path 10306" d="M96.878,70.328a3.586,3.586,0,0,1-2.044-.64L68.226,51.235,41.619,69.687a3.611,3.611,0,1,1-4.105-5.941L66.074,43.938a.725.725,0,0,1,.089-.072,3.633,3.633,0,0,1,4.339.159L98.939,63.746a3.611,3.611,0,0,1-1.4,6.522A3.655,3.655,0,0,1,96.878,70.328ZM68.226,49.609a.731.731,0,0,1,.418.131L95.668,68.482a2.144,2.144,0,0,0,2.436-3.53L69.643,45.214c-.017-.012-.033-.024-.048-.037a2.161,2.161,0,0,0-2.513-.16.725.725,0,0,1-.077.062L38.349,64.951h0a2.144,2.144,0,1,0,2.437,3.529L67.808,49.74A.733.733,0,0,1,68.226,49.609ZM37.931,64.349h0Z" transform="translate(-35.954 -43.223)" fill="#21409a"/>
      <path id="Path_10306_-_Outline" data-name="Path 10306 - Outline" d="M96.878,70.578a3.834,3.834,0,0,1-2.186-.685L68.226,51.539,41.762,69.893a3.861,3.861,0,1,1-4.39-6.352l28.545-19.8a.983.983,0,0,1,.1-.083,3.883,3.883,0,0,1,4.632.164L99.081,63.541a3.861,3.861,0,0,1-1.5,6.974A3.917,3.917,0,0,1,96.878,70.578ZM68.226,50.931l26.75,18.552a3.335,3.335,0,0,0,1.9.6,3.416,3.416,0,0,0,.613-.056A3.361,3.361,0,0,0,98.8,63.952L70.345,44.219a3.383,3.383,0,0,0-4.039-.148.475.475,0,0,0-.058.047l-.014.014-.016.011L37.656,63.951a3.361,3.361,0,0,0,3.821,5.53ZM96.881,69.112a2.374,2.374,0,0,1-1.354-.424L68.5,49.945a.49.49,0,0,0-.551,0L40.927,68.687a2.38,2.38,0,0,1-1.358.424h0a2.394,2.394,0,0,1-1.363-4.364l0,0L66.862,44.873a.474.474,0,0,0,.05-.04l.017-.016.02-.012a2.411,2.411,0,0,1,2.8.179l.033.025L98.246,64.747a2.394,2.394,0,0,1-.93,4.325A2.429,2.429,0,0,1,96.881,69.112ZM68.226,49.359a.977.977,0,0,1,.561.176L95.811,68.277a1.876,1.876,0,0,0,1.07.335,1.928,1.928,0,0,0,.346-.032,1.894,1.894,0,0,0,.735-3.422L69.5,45.419c-.025-.017-.046-.033-.066-.05a1.911,1.911,0,0,0-2.2-.152.983.983,0,0,1-.085.066L38.487,65.16a1.894,1.894,0,0,0,1.082,3.45h0a1.881,1.881,0,0,0,1.073-.335L67.666,49.534A.979.979,0,0,1,68.226,49.359Z" transform="translate(-35.954 -43.223)" fill="#21409a"/>
    </g>
    <g id="Group_806" data-name="Group 806" transform="translate(6.426 23.802)">
      <path id="Path_10307" data-name="Path 10307" d="M130.727,244.13H80.5a.733.733,0,0,1-.733-.733V206.251a.733.733,0,0,1,1.467,0v36.412h48.759V206.251a.733.733,0,0,1,1.467,0V243.4A.733.733,0,0,1,130.727,244.13Z" transform="translate(-79.768 -205.518)" fill="#21409a"/>
      <path id="Path_10307_-_Outline" data-name="Path 10307 - Outline" d="M130.727,244.38H80.5a.984.984,0,0,1-.983-.983V206.251a.983.983,0,1,1,1.967,0v36.162h48.259V206.251a.983.983,0,1,1,1.967,0V243.4A.984.984,0,0,1,130.727,244.38ZM80.5,205.768a.484.484,0,0,0-.483.483V243.4a.484.484,0,0,0,.483.483h50.225a.484.484,0,0,0,.483-.483V206.251a.483.483,0,0,0-.967,0v36.662H80.985V206.251A.484.484,0,0,0,80.5,205.768Z" transform="translate(-79.768 -205.518)" fill="#21409a"/>
    </g>
    <g id="Group_814" data-name="Group 814" transform="translate(12.307 20.263)">
      <g id="Group_807" data-name="Group 807" transform="translate(16.111 0)">
        <path id="Path_10308" data-name="Path 10308" d="M245.023,196.338a.733.733,0,0,1-.723-.61,2.668,2.668,0,0,0-1.119-2.033,2.414,2.414,0,0,0-1.842-.021.733.733,0,0,1-.807-.156l-2.862-2.862a.733.733,0,0,1-.193-.7,2.82,2.82,0,0,0-.4-2.437c-1.66-2.344-6.641-2.845-6.691-2.85a.733.733,0,0,1-.357-1.327c3.56-2.543,7.53-2.606,11.483-.183a18.811,18.811,0,0,1,4.825,4.36.734.734,0,0,1,.143.449,3.372,3.372,0,0,0,.822,2.757,1.811,1.811,0,0,0,1.445.242.734.734,0,0,1,.723,1.223l-3.93,3.93A.733.733,0,0,1,245.023,196.338Zm-2.7-4.31a3.244,3.244,0,0,1,1.564.379,3.4,3.4,0,0,1,1.51,1.791l1.861-1.862a2.8,2.8,0,0,1-.828-.433,4.425,4.425,0,0,1-1.412-3.694,17.7,17.7,0,0,0-4.3-3.816c-2.827-1.721-5.559-2-8.147-.831,1.836.422,4.431,1.314,5.706,3.112a4.183,4.183,0,0,1,.713,3.225l2.267,2.267A4.363,4.363,0,0,1,242.319,192.028Z" transform="translate(-229.723 -181.391)" fill="#21409a"/>
        <path id="Path_10308_-_Outline" data-name="Path 10308 - Outline" d="M245.023,196.463a.858.858,0,0,1-.846-.714,2.556,2.556,0,0,0-1.055-1.944,1.671,1.671,0,0,0-.808-.188,2.757,2.757,0,0,0-.926.172.857.857,0,0,1-.945-.182l-2.862-2.862a.862.862,0,0,1-.226-.814,2.7,2.7,0,0,0-.379-2.335c-1.626-2.3-6.551-2.793-6.6-2.8a.858.858,0,0,1-.418-1.553,9.891,9.891,0,0,1,5.811-1.978,11.1,11.1,0,0,1,5.81,1.79,18.938,18.938,0,0,1,4.861,4.392.864.864,0,0,1,.168.525,3.267,3.267,0,0,0,.773,2.655,1.452,1.452,0,0,0,.887.272,1.9,1.9,0,0,0,.449-.051.859.859,0,0,1,.844,1.432l-3.93,3.93A.852.852,0,0,1,245.023,196.463Zm-2.709-3.1a1.917,1.917,0,0,1,.927.218,2.78,2.78,0,0,1,1.182,2.122.608.608,0,0,0,1.03.328l3.93-3.93a.61.61,0,0,0-.6-1.014,2.111,2.111,0,0,1-.516.061,1.679,1.679,0,0,1-1.039-.324c-.595-.46-.9-1.448-.87-2.858a.612.612,0,0,0-.119-.372,18.658,18.658,0,0,0-4.79-4.328,10.857,10.857,0,0,0-5.68-1.753,9.646,9.646,0,0,0-5.666,1.932.608.608,0,0,0,.3,1.1c.051,0,5.09.515,6.781,2.9a2.938,2.938,0,0,1,.418,2.539.611.611,0,0,0,.16.577l2.862,2.862a.607.607,0,0,0,.67.129A2.942,2.942,0,0,1,242.314,193.366Zm3.034,1.053-.071-.175a3.287,3.287,0,0,0-1.454-1.728,3.107,3.107,0,0,0-1.5-.363,4.2,4.2,0,0,0-1.035.134l-.069.018-2.363-2.363.011-.064a4.066,4.066,0,0,0-.692-3.132c-.683-.963-2.215-2.276-5.633-3.062l-.362-.083.338-.153a7.881,7.881,0,0,1,3.256-.718,9.648,9.648,0,0,1,5.008,1.557,17.931,17.931,0,0,1,4.333,3.844l.027.034v.043a4.312,4.312,0,0,0,1.362,3.6,2.678,2.678,0,0,0,.792.413l.194.063Zm-3.029-2.517a3.354,3.354,0,0,1,1.623.394,3.463,3.463,0,0,1,1.493,1.682l1.592-1.592a2.914,2.914,0,0,1-.677-.383,4.514,4.514,0,0,1-1.461-3.749,17.665,17.665,0,0,0-4.241-3.754,9.4,9.4,0,0,0-4.878-1.52,7.559,7.559,0,0,0-2.807.549c1.876.472,4.208,1.377,5.411,3.072a4.3,4.3,0,0,1,.745,3.254l2.172,2.172A4.425,4.425,0,0,1,242.319,191.9Z" transform="translate(-229.723 -181.391)" fill="#21409a"/>
      </g>
      <g id="Group_808" data-name="Group 808" transform="translate(30.116 8.989)">
        <path id="Path_10309" data-name="Path 10309" d="M329.244,252.494a.73.73,0,0,1-.518-.215l-3.294-3.294a.733.733,0,0,1,0-1.037l5.053-5.053a.733.733,0,0,1,1.037,0l3.294,3.294a.733.733,0,0,1,0,1.037l-5.053,5.053A.731.731,0,0,1,329.244,252.494Zm-2.257-4.027,2.257,2.257,4.016-4.016L331,244.451Z" transform="translate(-325.217 -242.681)" fill="#21409a"/>
        <path id="Path_10309_-_Outline" data-name="Path 10309 - Outline" d="M329.244,252.619a.852.852,0,0,1-.607-.252l-3.294-3.294a.858.858,0,0,1,0-1.214l5.053-5.053a.852.852,0,0,1,.607-.251.864.864,0,0,1,.607.251L334.9,246.1a.858.858,0,0,1,0,1.214l-5.053,5.053A.852.852,0,0,1,329.244,252.619ZM331,242.806a.6.6,0,0,0-.43.178l-5.053,5.053a.608.608,0,0,0,0,.86l3.294,3.294a.608.608,0,0,0,.86,0l5.053-5.053a.608.608,0,0,0,0-.86l-3.294-3.294A.612.612,0,0,0,331,242.806Zm-1.759,8.095-2.434-2.434L331,244.275l2.434,2.434Zm-2.08-2.434,2.08,2.08,3.839-3.839-2.08-2.08Z" transform="translate(-325.217 -242.681)" fill="#21409a"/>
      </g>
      <g id="Group_809" data-name="Group 809" transform="translate(12.076 8.012)">
        <path id="Path_10310" data-name="Path 10310" d="M205.808,252.118a.731.731,0,0,1-.519-.215l-2.862-2.862a.733.733,0,0,1,0-1.037l11.766-11.766a.733.733,0,0,1,.518-.215h0a.733.733,0,0,1,.518.215l2.862,2.862a.733.733,0,0,1,0,1.037L206.327,251.9A.731.731,0,0,1,205.808,252.118Zm-1.825-3.6,1.825,1.825,10.729-10.729-1.825-1.825Z" transform="translate(-202.213 -236.023)" fill="#21409a"/>
        <path id="Path_10310_-_Outline" data-name="Path 10310 - Outline" d="M205.808,252.243a.853.853,0,0,1-.607-.251l-2.862-2.862a.858.858,0,0,1,0-1.214l11.766-11.766a.853.853,0,0,1,.607-.251.864.864,0,0,1,.607.251l2.862,2.862a.858.858,0,0,1,0,1.214l-11.766,11.766A.853.853,0,0,1,205.808,252.243Zm8.9-16.095a.6.6,0,0,0-.43.178l-11.766,11.766a.612.612,0,0,0-.178.43.6.6,0,0,0,.178.43l2.862,2.862a.608.608,0,0,0,.86,0L218,240.048a.608.608,0,0,0,0-.86l-2.862-2.862A.612.612,0,0,0,214.713,236.148Zm-8.9,14.376-2-2,10.906-10.906,2,2Zm-1.648-2,1.648,1.648,10.552-10.552-1.648-1.648Z" transform="translate(-202.213 -236.023)" fill="#21409a"/>
      </g>
      <g id="Group_810" data-name="Group 810" transform="translate(0 19.14)">
        <path id="Path_10311" data-name="Path 10311" d="M123.528,328.941a3.66,3.66,0,0,1-2.588-6.244l10.584-10.584a.733.733,0,0,1,1.037,0l4.139,4.139a.733.733,0,0,1,0,1.037l-10.584,10.584A3.635,3.635,0,0,1,123.528,328.941Zm8.515-15.273-10.065,10.065a2.193,2.193,0,0,0,3.1,3.1l10.065-10.065Z" transform="translate(-119.872 -311.898)" fill="#21409a"/>
        <path id="Path_10311_-_Outline" data-name="Path 10311 - Outline" d="M123.528,329.066h0a3.785,3.785,0,0,1-2.676-6.458l10.584-10.584a.858.858,0,0,1,1.214,0l4.139,4.139a.858.858,0,0,1,0,1.214L126.2,327.961A3.759,3.759,0,0,1,123.528,329.066Zm8.515-17.043a.6.6,0,0,0-.43.178l-10.584,10.584a3.535,3.535,0,0,0,5,5L136.612,317.2a.608.608,0,0,0,0-.86l-4.139-4.139A.6.6,0,0,0,132.043,312.023ZM123.528,327.6a2.318,2.318,0,0,1-1.639-3.954l10.154-10.154,3.279,3.279-10.154,10.154A2.3,2.3,0,0,1,123.528,327.6Zm8.515-13.754-9.977,9.977a2.068,2.068,0,0,0,2.925,2.925l9.977-9.977Z" transform="translate(-119.872 -311.898)" fill="#21409a"/>
      </g>
      <g id="Group_813" data-name="Group 813" transform="translate(2.244 22.601)">
        <g id="Group_811" data-name="Group 811" transform="translate(0 5.732)">
          <path id="Path_10312" data-name="Path 10312" d="M140.049,380.187a.731.731,0,0,1-.519-.215l-4.139-4.139a.733.733,0,1,1,1.037-1.037l4.139,4.139a.733.733,0,0,1-.518,1.252Z" transform="translate(-135.176 -374.581)" fill="#21409a"/>
          <path id="Path_10312_-_Outline" data-name="Path 10312 - Outline" d="M140.049,380.312a.853.853,0,0,1-.607-.251l-4.139-4.139a.858.858,0,1,1,1.214-1.214l4.139,4.139a.858.858,0,0,1-.607,1.465Zm-4.139-5.605a.608.608,0,0,0-.43,1.038l4.139,4.139a.608.608,0,1,0,.86-.86l-4.139-4.139A.6.6,0,0,0,135.91,374.706Z" transform="translate(-135.176 -374.581)" fill="#21409a"/>
        </g>
        <g id="Group_812" data-name="Group 812" transform="translate(5.732)">
          <path id="Path_10313" data-name="Path 10313" d="M179.135,341.1a.731.731,0,0,1-.519-.215l-4.139-4.139a.733.733,0,0,1,1.037-1.037l4.139,4.139a.733.733,0,0,1-.518,1.252Z" transform="translate(-174.262 -335.495)" fill="#21409a"/>
          <path id="Path_10313_-_Outline" data-name="Path 10313 - Outline" d="M179.135,341.226a.853.853,0,0,1-.607-.251l-4.139-4.139a.858.858,0,0,1,1.214-1.214l4.139,4.139a.858.858,0,0,1-.607,1.465ZM175,335.62a.608.608,0,0,0-.43,1.038L178.7,340.8a.608.608,0,1,0,.86-.86l-4.139-4.139A.6.6,0,0,0,175,335.62Z" transform="translate(-174.262 -335.495)" fill="#21409a"/>
        </g>
      </g>
    </g>
  </g>
</svg>
