<svg xmlns="http://www.w3.org/2000/svg" width="80.105" height="76.818" viewBox="0 0 80.105 76.818">
  <g id="noun-folder-4194718" transform="translate(-9.8 -41.35)">
    <g id="Group_1063" data-name="Group 1063" transform="translate(10 65.642)">
      <g id="Group_1062" data-name="Group 1062" transform="translate(0 0)">
        <g id="Group_1061" data-name="Group 1061">
          <g id="Group_1060" data-name="Group 1060">
            <g id="Group_1058" data-name="Group 1058" transform="translate(0 42.257)">
              <path id="Path_10571" data-name="Path 10571" d="M88.611,1317.358H11.094a1.094,1.094,0,1,1,0-2.188H88.611a1.094,1.094,0,1,1,0,2.188Z" transform="translate(-10 -1315.17)" fill="#21409a"/>
              <path id="Path_10571_-_Outline" data-name="Path 10571 - Outline" d="M88.611,1317.558H11.094a1.294,1.294,0,1,1,0-2.588H88.611a1.294,1.294,0,1,1,0,2.588Zm-77.517-2.188a.894.894,0,1,0,0,1.788H88.611a.894.894,0,1,0,0-1.788Z" transform="translate(-10 -1315.17)" fill="#21409a"/>
            </g>
            <g id="Group_1059" data-name="Group 1059">
              <path id="Path_10572" data-name="Path 10572" d="M88.611,556.336H11.094A1.094,1.094,0,0,1,10,555.242V505.1a1.094,1.094,0,0,1,1.094-1.094H37.449a1.093,1.093,0,0,1,.746.294l7.873,7.335H88.611a1.094,1.094,0,0,1,1.094,1.094v42.509A1.094,1.094,0,0,1,88.611,556.336Zm-76.423-2.188H87.517V513.827H45.636a1.093,1.093,0,0,1-.746-.294L37.017,506.2H12.188Z" transform="translate(-10 -504.01)" fill="#21409a"/>
              <path id="Path_10572_-_Outline" data-name="Path 10572 - Outline" d="M88.611,556.536H11.094A1.3,1.3,0,0,1,9.8,555.242V505.1a1.3,1.3,0,0,1,1.294-1.294H37.449a1.289,1.289,0,0,1,.882.348l7.815,7.281H88.611a1.3,1.3,0,0,1,1.294,1.294v42.509A1.3,1.3,0,0,1,88.611,556.536ZM11.094,504.21a.9.9,0,0,0-.894.894v50.138a.9.9,0,0,0,.894.894H88.611a.9.9,0,0,0,.894-.894V512.733a.9.9,0,0,0-.894-.894H45.989l-7.93-7.389a.89.89,0,0,0-.61-.24Zm76.623,50.138H11.988V506H37.1l7.93,7.389a.89.89,0,0,0,.61.24H87.717Zm-75.329-.4H87.317V514.027H45.636a1.289,1.289,0,0,1-.882-.348L36.939,506.4H12.388Z" transform="translate(-10 -504.01)" fill="#21409a"/>
            </g>
          </g>
        </g>
      </g>
    </g>
    <g id="Group_1069" data-name="Group 1069" transform="translate(21.843 41.55)">
      <g id="Group_1068" data-name="Group 1068" transform="translate(0 0)">
        <g id="Group_1066" data-name="Group 1066">
          <g id="Group_1064" data-name="Group 1064" transform="translate(53.831 12.242)">
            <path id="Path_10573" data-name="Path 10573" d="M1271.754,298.207a1.094,1.094,0,0,1-1.094-1.094V277.634a1.094,1.094,0,1,1,2.188,0v19.479A1.094,1.094,0,0,1,1271.754,298.207Z" transform="translate(-1270.66 -276.54)" fill="#21409a"/>
            <path id="Path_10573_-_Outline" data-name="Path 10573 - Outline" d="M1271.754,298.407a1.3,1.3,0,0,1-1.294-1.294V277.634a1.294,1.294,0,1,1,2.588,0v19.479A1.3,1.3,0,0,1,1271.754,298.407Zm0-21.667a.9.9,0,0,0-.894.894v19.479a.894.894,0,0,0,1.788,0V277.634A.9.9,0,0,0,1271.754,276.74Z" transform="translate(-1270.66 -276.54)" fill="#21409a"/>
          </g>
          <g id="Group_1065" data-name="Group 1065">
            <path id="Path_10574" data-name="Path 10574" d="M238.434,67.83a1.094,1.094,0,0,1-1.094-1.094V42.644a1.094,1.094,0,0,1,1.094-1.094h41.59a1.094,1.094,0,1,1,0,2.188h-40.5v23A1.094,1.094,0,0,1,238.434,67.83Z" transform="translate(-237.34 -41.55)" fill="#21409a"/>
            <path id="Path_10574_-_Outline" data-name="Path 10574 - Outline" d="M238.434,68.03a1.3,1.3,0,0,1-1.294-1.294V42.644a1.3,1.3,0,0,1,1.294-1.294h41.59a1.294,1.294,0,1,1,0,2.588h-40.3v22.8A1.3,1.3,0,0,1,238.434,68.03Zm0-26.28a.9.9,0,0,0-.894.894V66.736a.894.894,0,1,0,1.788,0v-23.2h40.7a.894.894,0,1,0,0-1.788Z" transform="translate(-237.34 -41.55)" fill="#21409a"/>
          </g>
        </g>
        <g id="Group_1067" data-name="Group 1067" transform="translate(41.59 0)">
          <path id="Path_10575" data-name="Path 10575" d="M1049.025,55.981h-12.241a1.094,1.094,0,0,1-1.094-1.094V42.646a1.094,1.094,0,0,1,1.868-.774L1049.8,54.113a1.095,1.095,0,0,1-.774,1.868Zm-11.147-2.188h8.506l-8.506-8.506Z" transform="translate(-1035.69 -41.552)" fill="#21409a"/>
          <path id="Path_10575_-_Outline" data-name="Path 10575 - Outline" d="M1049.025,56.181h-12.241a1.3,1.3,0,0,1-1.294-1.294V42.646a1.294,1.294,0,0,1,2.209-.915l12.241,12.241a1.294,1.294,0,0,1-.915,2.21Zm-12.241-14.43a.894.894,0,0,0-.894.894V54.887a.9.9,0,0,0,.894.894h12.241a.895.895,0,0,0,.632-1.527l-12.241-12.241A.889.889,0,0,0,1036.784,41.752Zm10.083,12.242h-9.189V44.8Zm-8.789-.4h7.823l-7.823-7.823Z" transform="translate(-1035.69 -41.552)" fill="#21409a"/>
        </g>
      </g>
    </g>
    <g id="Group_1074" data-name="Group 1074" transform="translate(27.17 49.517)">
      <g id="Group_1070" data-name="Group 1070" transform="translate(0)">
        <path id="Path_10576" data-name="Path 10576" d="M371.223,196.678H340.694a1.094,1.094,0,1,1,0-2.188h30.529a1.094,1.094,0,1,1,0,2.188Z" transform="translate(-339.6 -194.49)" fill="#21409a"/>
        <path id="Path_10576_-_Outline" data-name="Path 10576 - Outline" d="M371.223,196.878H340.694a1.294,1.294,0,1,1,0-2.588h30.529a1.294,1.294,0,1,1,0,2.588Zm-30.529-2.188a.894.894,0,1,0,0,1.788h30.529a.894.894,0,1,0,0-1.788Z" transform="translate(-339.6 -194.49)" fill="#21409a"/>
      </g>
      <g id="Group_1071" data-name="Group 1071" transform="translate(0 8.105)">
        <path id="Path_10577" data-name="Path 10577" d="M357.24,352.258H340.694a1.094,1.094,0,1,1,0-2.188H357.24a1.094,1.094,0,1,1,0,2.188Z" transform="translate(-339.6 -350.07)" fill="#21409a"/>
        <path id="Path_10577_-_Outline" data-name="Path 10577 - Outline" d="M357.24,352.458H340.694a1.294,1.294,0,1,1,0-2.588H357.24a1.294,1.294,0,1,1,0,2.588Zm-16.546-2.188a.894.894,0,1,0,0,1.788H357.24a.894.894,0,1,0,0-1.788Z" transform="translate(-339.6 -350.07)" fill="#21409a"/>
      </g>
      <g id="Group_1072" data-name="Group 1072" transform="translate(21.165 8.105)">
        <path id="Path_10578" data-name="Path 10578" d="M756.3,352.258h-9.333a1.094,1.094,0,1,1,0-2.188H756.3a1.094,1.094,0,1,1,0,2.188Z" transform="translate(-745.87 -350.07)" fill="#21409a"/>
        <path id="Path_10578_-_Outline" data-name="Path 10578 - Outline" d="M756.3,352.458h-9.333a1.294,1.294,0,1,1,0-2.588H756.3a1.294,1.294,0,1,1,0,2.588Zm-9.333-2.188a.894.894,0,1,0,0,1.788H756.3a.894.894,0,1,0,0-1.788Z" transform="translate(-745.87 -350.07)" fill="#21409a"/>
      </g>
      <g id="Group_1073" data-name="Group 1073" transform="translate(17.882 16.21)">
        <path id="Path_10579" data-name="Path 10579" d="M709.239,507.838H683.944a1.094,1.094,0,1,1,0-2.188h25.294a1.094,1.094,0,0,1,0,2.188Z" transform="translate(-682.85 -505.65)" fill="#21409a"/>
        <path id="Path_10579_-_Outline" data-name="Path 10579 - Outline" d="M709.239,508.038H683.944a1.294,1.294,0,1,1,0-2.588h25.294a1.294,1.294,0,0,1,0,2.588Zm-25.295-2.188a.894.894,0,1,0,0,1.788h25.295a.894.894,0,0,0,0-1.788Z" transform="translate(-682.85 -505.65)" fill="#21409a"/>
      </g>
    </g>
  </g>
</svg>
