<svg xmlns="http://www.w3.org/2000/svg" width="77.559" height="73.5" viewBox="0 0 77.559 73.5">
  <g id="Group_934" data-name="Group 934" transform="translate(0.25 0.25)">
    <g id="noun-download-file-4426624" transform="translate(20.281 0)">
      <g id="Group_898" data-name="Group 898" transform="translate(0)">
        <path id="Path_10410" data-name="Path 10410" d="M156.321,236.181H121.575a.866.866,0,0,1-.875-.875V192.775a.866.866,0,0,1,.875-.875h28.133a.875.875,0,1,1,0,1.75H122.45v40.782h33V199.721a.875.875,0,1,1,1.75,0v35.586A.866.866,0,0,1,156.321,236.181Z" transform="translate(-120.7 -191.9)" fill="#21409a"/>
        <path id="Path_10410_-_Outline" data-name="Path 10410 - Outline" d="M156.321,236.431H121.575a1.113,1.113,0,0,1-1.125-1.125V192.775a1.113,1.113,0,0,1,1.125-1.125h28.133a1.125,1.125,0,1,1,0,2.25H122.7v40.282h32.5V199.721a1.125,1.125,0,1,1,2.25,0v35.586A1.113,1.113,0,0,1,156.321,236.431ZM121.575,192.15a.618.618,0,0,0-.625.625v42.532a.618.618,0,0,0,.625.625h34.746a.618.618,0,0,0,.625-.625V199.721a.625.625,0,1,0-1.25,0v34.961H122.2V193.4h27.508a.625.625,0,1,0,0-1.25Z" transform="translate(-120.7 -191.9)" fill="#21409a"/>
        <path id="Path_10411" data-name="Path 10411" d="M288.906,200.613h-6.631a.866.866,0,0,1-.875-.875v-6.946a.87.87,0,0,1,1.5-.595l6.631,6.946a.86.86,0,0,1,.175.945A.884.884,0,0,1,288.906,200.613Zm-5.739-1.75h3.709l-3.709-3.884Z" transform="translate(-253.285 -191.918)" fill="#21409a"/>
        <path id="Path_10411_-_Outline" data-name="Path 10411 - Outline" d="M288.906,200.863h-6.631a1.113,1.113,0,0,1-1.125-1.125v-6.946a1.1,1.1,0,0,1,.7-1.037,1.09,1.09,0,0,1,.42-.084,1.121,1.121,0,0,1,.817.356l6.627,6.942a1.105,1.105,0,0,1,.225,1.221A1.133,1.133,0,0,1,288.906,200.863Zm-6.635-8.692a.593.593,0,0,0-.231.047l-.011,0a.609.609,0,0,0-.379.57v6.946a.618.618,0,0,0,.625.625h6.631a.632.632,0,0,0,.576-.376.61.61,0,0,0-.123-.666l0,0-6.631-6.946A.621.621,0,0,0,282.271,192.172Zm5.19,6.942h-4.543v-4.758Zm-4.043-.5h2.875l-2.875-3.01Z" transform="translate(-253.285 -191.918)" fill="#21409a"/>
        <g id="Group_897" data-name="Group 897" transform="translate(27.363 31.247) rotate(180)">
          <path id="Path_10412" data-name="Path 10412" d="M9.115,18.23A9.115,9.115,0,1,1,18.23,9.115,9.132,9.132,0,0,1,9.115,18.23Zm0-16.463a7.366,7.366,0,1,0,7.366,7.366A7.377,7.377,0,0,0,9.115,1.767Z" fill="#21409a"/>
          <path id="Path_10412_-_Outline" data-name="Path 10412 - Outline" d="M9.115,18.48A9.365,9.365,0,1,1,18.48,9.115,9.376,9.376,0,0,1,9.115,18.48Zm0-18.23A8.865,8.865,0,1,0,17.98,9.115,8.875,8.875,0,0,0,9.115.25Zm0,16.5a7.616,7.616,0,1,1,7.616-7.616A7.624,7.624,0,0,1,9.115,16.748Zm0-14.731a7.116,7.116,0,1,0,7.116,7.116A7.124,7.124,0,0,0,9.115,2.017Z" fill="#21409a"/>
          <g id="Group_896" data-name="Group 896" transform="translate(5.629 4.181)">
            <path id="Path_10413" data-name="Path 10413" d="M.875,9.868A.866.866,0,0,1,0,8.993V.875A.866.866,0,0,1,.875,0,.866.866,0,0,1,1.75.875V8.993A.866.866,0,0,1,.875,9.868Z" transform="translate(2.611)" fill="#21409a"/>
            <path id="Path_10413_-_Outline" data-name="Path 10413 - Outline" d="M.875,10.118A1.113,1.113,0,0,1-.25,8.993V.875A1.113,1.113,0,0,1,.875-.25,1.113,1.113,0,0,1,2,.875V8.993A1.113,1.113,0,0,1,.875,10.118ZM.875.25A.618.618,0,0,0,.25.875V8.993a.618.618,0,0,0,.625.625A.618.618,0,0,0,1.5,8.993V.875A.618.618,0,0,0,.875.25Z" transform="translate(2.611)" fill="#21409a"/>
            <path id="Path_10414" data-name="Path 10414" d="M3.486,4.781a.876.876,0,0,1-.665-.3L.214,1.439A.861.861,0,0,1,.3.214.884.884,0,0,1,1.544.3L3.486,2.576,5.428.319A.868.868,0,1,1,6.74,1.456L4.133,4.5A.857.857,0,0,1,3.486,4.781Z" transform="translate(0 5.087)" fill="#21409a"/>
            <path id="Path_10414_-_Outline" data-name="Path 10414 - Outline" d="M3.486,5.031a1.122,1.122,0,0,1-.85-.379l0-.006L.024,1.6A1.144,1.144,0,0,1-.245.758,1.064,1.064,0,0,1,.142.022,1.142,1.142,0,0,1,.882-.25a1.119,1.119,0,0,1,.852.389L3.487,2.192,5.238.156a1.116,1.116,0,0,1,.849-.389,1.092,1.092,0,0,1,.731.277A1.108,1.108,0,0,1,7.2.818a1.088,1.088,0,0,1-.274.8L4.319,4.668A1.1,1.1,0,0,1,3.486,5.031Zm-.477-.713a.626.626,0,0,0,.477.213.61.61,0,0,0,.46-.2L6.554,1.289A.592.592,0,0,0,6.7.85.612.612,0,0,0,6.49.421l0,0a.593.593,0,0,0-.4-.15.617.617,0,0,0-.469.214L3.485,2.96,1.354.464A.62.62,0,0,0,.882.25.642.642,0,0,0,.464.4l-.005,0A.568.568,0,0,0,.253.8.641.641,0,0,0,.4,1.276Z" transform="translate(0 5.087)" fill="#21409a"/>
          </g>
        </g>
      </g>
    </g>
    <g id="noun-ip-address-4426625" transform="translate(0 6.845)">
      <g id="Group_916" data-name="Group 916" transform="translate(0 0)">
        <path id="Path_10424" data-name="Path 10424" d="M76.4,121.331H10.657A5.667,5.667,0,0,1,5,115.672V72.959A5.667,5.667,0,0,1,10.657,67.3h15.08a.876.876,0,0,1,0,1.752H10.657a3.91,3.91,0,0,0-3.906,3.907v42.713a3.91,3.91,0,0,0,3.906,3.907H76.4a3.91,3.91,0,0,0,3.906-3.907V72.959A3.91,3.91,0,0,0,76.4,69.052H61A.876.876,0,0,1,61,67.3H76.4a5.667,5.667,0,0,1,5.657,5.659v42.713A5.667,5.667,0,0,1,76.4,121.331Z" transform="translate(-5 -67.3)" fill="#21409a"/>
        <path id="Path_10424_-_Outline" data-name="Path 10424 - Outline" d="M76.4,121.581H10.657a5.915,5.915,0,0,1-5.907-5.909V72.959a5.915,5.915,0,0,1,5.907-5.909h15.08a1.126,1.126,0,0,1,0,2.252H10.657A3.66,3.66,0,0,0,7,72.959v42.713a3.66,3.66,0,0,0,3.656,3.657H76.4a3.66,3.66,0,0,0,3.655-3.657V72.959A3.66,3.66,0,0,0,76.4,69.3H61a1.126,1.126,0,0,1,0-2.252H76.4a5.915,5.915,0,0,1,5.907,5.909v42.713A5.915,5.915,0,0,1,76.4,121.581ZM10.657,67.55A5.414,5.414,0,0,0,5.25,72.959v42.713a5.414,5.414,0,0,0,5.407,5.409H76.4a5.414,5.414,0,0,0,5.407-5.409V72.959A5.414,5.414,0,0,0,76.4,67.55H61A.626.626,0,0,0,61,68.8H76.4a4.161,4.161,0,0,1,4.155,4.157v42.713a4.161,4.161,0,0,1-4.155,4.157H10.657A4.161,4.161,0,0,1,6.5,115.672V72.959A4.161,4.161,0,0,1,10.657,68.8h15.08a.626.626,0,0,0,0-1.252Z" transform="translate(-5 -67.3)" fill="#21409a"/>
        <path id="Path_10425" data-name="Path 10425" d="M81.184,303.65H5.876a.875.875,0,1,1,0-1.75H81.184a.867.867,0,0,1,.876.875A.878.878,0,0,1,81.184,303.65Z" transform="translate(-5 -260.797)" fill="#21409a"/>
        <path id="Path_10425_-_Outline" data-name="Path 10425 - Outline" d="M81.184,303.9H5.876a1.125,1.125,0,1,1,0-2.25H81.184a1.113,1.113,0,0,1,1.126,1.125A1.126,1.126,0,0,1,81.184,303.9ZM5.876,302.15a.625.625,0,1,0,0,1.25H81.184a.626.626,0,0,0,.626-.625.619.619,0,0,0-.626-.625Z" transform="translate(-5 -260.797)" fill="#21409a"/>
      </g>
      <g id="Group_917" data-name="Group 917" transform="translate(28.26 52.281)">
        <path id="Path_10426" data-name="Path 10426" d="M167.175,379.574a.866.866,0,0,1-.875-.875V366.575a.875.875,0,0,1,1.75,0V378.7A.877.877,0,0,1,167.175,379.574Z" transform="translate(-166.3 -365.7)" fill="#21409a"/>
        <path id="Path_10426_-_Outline" data-name="Path 10426 - Outline" d="M167.175,379.824a1.113,1.113,0,0,1-1.125-1.125V366.575a1.125,1.125,0,0,1,2.25,0V378.7A1.126,1.126,0,0,1,167.175,379.824Zm0-13.874a.618.618,0,0,0-.625.625V378.7a.618.618,0,0,0,.625.625.625.625,0,0,0,.625-.625V366.575A.618.618,0,0,0,167.175,365.95Z" transform="translate(-166.3 -365.7)" fill="#21409a"/>
        <path id="Path_10427" data-name="Path 10427" d="M274.575,379.574a.866.866,0,0,1-.875-.875V366.575a.875.875,0,0,1,1.75,0V378.7A.866.866,0,0,1,274.575,379.574Z" transform="translate(-254.91 -365.7)" fill="#21409a"/>
        <path id="Path_10427_-_Outline" data-name="Path 10427 - Outline" d="M274.575,379.824a1.113,1.113,0,0,1-1.125-1.125V366.575a1.125,1.125,0,0,1,2.25,0V378.7A1.113,1.113,0,0,1,274.575,379.824Zm0-13.874a.618.618,0,0,0-.625.625V378.7a.625.625,0,0,0,1.25,0V366.575A.618.618,0,0,0,274.575,365.95Z" transform="translate(-254.91 -365.7)" fill="#21409a"/>
      </g>
      <path id="Path_10428" data-name="Path 10428" d="M155.216,436.75H119.875a.875.875,0,0,1,0-1.75h35.341a.875.875,0,0,1,0,1.75Z" transform="translate(-99.016 -370.594)" fill="#21409a"/>
      <path id="Path_10428_-_Outline" data-name="Path 10428 - Outline" d="M155.216,437H119.875a1.125,1.125,0,0,1,0-2.25h35.341a1.125,1.125,0,0,1,0,2.25Zm-35.341-1.75a.625.625,0,0,0,0,1.25h35.341a.625.625,0,0,0,0-1.25Z" transform="translate(-99.016 -370.594)" fill="#21409a"/>
    </g>
  </g>
</svg>
