<svg id="noun-video-call-4194720" xmlns="http://www.w3.org/2000/svg" width="82.35" height="73" viewBox="0 0 82.35 73">
  <g id="Group_932" data-name="Group 932" transform="translate(15.654 0)">
    <g id="Group_920" data-name="Group 920" transform="translate(0 35.881)">
      <path id="Path_10432" data-name="Path 10432" d="M238.3,793.163H193.456a1.129,1.129,0,0,1-1.126-1.045l-1.966-26.309a2.81,2.81,0,0,1,2.8-3.02h45.422a2.81,2.81,0,0,1,2.8,3.02l-1.966,26.309A1.129,1.129,0,0,1,238.3,793.163ZM194.5,790.905H237.25l1.888-25.264a.552.552,0,0,0-.55-.593H193.166a.552.552,0,0,0-.55.593Z" transform="translate(-190.356 -762.79)" fill="#21409a"/>
    </g>
    <g id="Group_930" data-name="Group 930" transform="translate(6.067)">
      <g id="Group_929" data-name="Group 929">
        <g id="Group_921" data-name="Group 921" transform="translate(13.863 25.992)">
          <path id="Path_10433" data-name="Path 10433" d="M566.611,592.02a1.128,1.128,0,0,1-.879-.42l-4.462-5.531a1.13,1.13,0,0,1-.251-.709V581.4a1.129,1.129,0,0,1,2.258,0v3.562l3.333,4.131,3.333-4.131V581.4a1.129,1.129,0,0,1,2.258,0v3.96a1.128,1.128,0,0,1-.251.709l-4.462,5.531A1.128,1.128,0,0,1,566.611,592.02Z" transform="translate(-561.02 -580.27)" fill="#21409a"/>
        </g>
        <g id="Group_926" data-name="Group 926" transform="translate(6.636)">
          <g id="Group_922" data-name="Group 922" transform="translate(1.18)">
            <path id="Path_10434" data-name="Path 10434" d="M470.7,113.73a1.129,1.129,0,0,1-1.129-1.129v-4.1a9.4,9.4,0,0,0-9.345-9.38h-.033a9.266,9.266,0,0,0-6.575,2.743,9.429,9.429,0,0,0-2.806,6.719V112.6a1.129,1.129,0,1,1-2.258,0V108.58a11.6,11.6,0,0,1,.934-4.574,11.779,11.779,0,0,1,2.537-3.744,11.509,11.509,0,0,1,8.169-3.4h.041a11.639,11.639,0,0,1,11.6,11.638v4.1A1.13,1.13,0,0,1,470.7,113.73Z" transform="translate(-448.55 -96.86)" fill="#21409a"/>
          </g>
          <g id="Group_923" data-name="Group 923" transform="translate(3.908 9.016)">
            <path id="Path_10435" data-name="Path 10435" d="M508.209,285.163a8.919,8.919,0,0,1-8.909-8.909v-7.043a1.13,1.13,0,0,1,1.163-1.129h0c.081,0,8.153.2,11.558-3.209a1.13,1.13,0,0,1,1.64.045l3.171,3.54a1.129,1.129,0,0,1,.288.753v7.043A8.921,8.921,0,0,1,508.209,285.163Zm-6.651-14.83v5.92a6.651,6.651,0,0,0,13.3,0v-6.611l-2.144-2.393C509.318,269.816,503.922,270.265,501.558,270.333Z" transform="translate(-499.3 -264.542)" fill="#21409a"/>
          </g>
          <g id="Group_924" data-name="Group 924" transform="translate(0 14.178)">
            <path id="Path_10436" data-name="Path 10436" d="M431.648,368.413h-1.106a3.932,3.932,0,0,1,0-7.863h1.106a1.129,1.129,0,0,1,1.129,1.129v5.6A1.129,1.129,0,0,1,431.648,368.413Zm-1.129-5.6a1.673,1.673,0,0,0,0,3.347Z" transform="translate(-426.61 -360.55)" fill="#21409a"/>
          </g>
          <g id="Group_925" data-name="Group 925" transform="translate(19.47 14.178)">
            <path id="Path_10437" data-name="Path 10437" d="M790.945,368.413h-1.106a1.129,1.129,0,0,1-1.129-1.129v-5.6a1.129,1.129,0,0,1,1.129-1.129h1.106a3.932,3.932,0,0,1,0,7.863Zm.022-5.6v3.346a1.673,1.673,0,0,0,0-3.346Z" transform="translate(-788.71 -360.55)" fill="#21409a"/>
          </g>
        </g>
        <g id="Group_927" data-name="Group 927" transform="translate(0 29.926)">
          <path id="Path_10438" data-name="Path 10438" d="M304.315,661.57a1.129,1.129,0,0,1-.879-1.837,9.948,9.948,0,0,1,4.827-3.277l9.622-2.974a1.129,1.129,0,0,1,.662,2.159l-.037.011-9.58,2.962a7.7,7.7,0,0,0-3.735,2.535A1.126,1.126,0,0,1,304.315,661.57Z" transform="translate(-303.187 -653.432)" fill="#21409a"/>
        </g>
        <g id="Group_928" data-name="Group 928" transform="translate(22.75 29.927)">
          <path id="Path_10439" data-name="Path 10439" d="M741.322,661.589a1.127,1.127,0,0,1-.88-.421,7.694,7.694,0,0,0-3.735-2.535l-9.617-2.972a1.129,1.129,0,1,1,.662-2.159l.037.011,9.585,2.962a9.943,9.943,0,0,1,4.827,3.277,1.128,1.128,0,0,1-.879,1.837Z" transform="translate(-726.292 -653.452)" fill="#21409a"/>
        </g>
      </g>
    </g>
    <g id="Group_931" data-name="Group 931" transform="translate(21.598 47.13)">
      <path id="Path_10440" data-name="Path 10440" d="M595.963,980.126a3.923,3.923,0,1,1,3.923-3.923A3.928,3.928,0,0,1,595.963,980.126Zm0-5.588a1.665,1.665,0,1,0,1.665,1.665A1.667,1.667,0,0,0,595.963,974.538Z" transform="translate(-592.04 -972.28)" fill="#21409a"/>
    </g>
  </g>
  <g id="Group_933" data-name="Group 933" transform="translate(0 64.016)">
    <path id="Path_10441" data-name="Path 10441" d="M91.22,1295.034H11.13a1.13,1.13,0,0,1-1.13-1.129,7.868,7.868,0,0,1,7.863-7.855H84.487a7.868,7.868,0,0,1,7.863,7.855A1.13,1.13,0,0,1,91.22,1295.034Zm-78.845-2.258h77.6a5.611,5.611,0,0,0-5.488-4.468H17.863A5.611,5.611,0,0,0,12.375,1292.776Z" transform="translate(-10 -1286.05)" fill="#21409a"/>
  </g>
</svg>
