<svg xmlns="http://www.w3.org/2000/svg" width="84" height="25" viewBox="0 0 84 25"><g><g><g><g><g><path fill="#fff" d="M6.62 10.379a9.395 9.395 0 0 1 3.232.44 3.836 3.836 0 0 1 2.031 1.646 2.8 2.8 0 0 1 .292.6c.07.203.144.432.215.68a.913.913 0 0 1 .026.388 1.11 1.11 0 0 1-.078.307.503.503 0 0 1-.133.093.477.477 0 0 0-.137.096.473.473 0 0 1-.266.026.647.647 0 0 0-.267 0 1.62 1.62 0 0 1-.562 0 1.35 1.35 0 0 1-.48-.119.629.629 0 0 1-.278-.37 1.88 1.88 0 0 0-.215-.421 2.66 2.66 0 0 0-.665-.773 2.127 2.127 0 0 0-.64-.322l-.74-.215a.555.555 0 0 0-.266-.037.92.92 0 0 1-.278-.003 1.24 1.24 0 0 0-.773-.011H6.48c-.088.018-.177.03-.266.04a3.506 3.506 0 0 0-1.417.492c-.328.236-.55.593-.614.992a.74.74 0 0 0 0 .37c.024.108.057.214.097.318.071.22.199.42.37.577.185.132.378.256.576.37.298.176.623.3.962.37.37.08.71.173 1.065.28.228.069.46.122.696.16.235.037.467.09.695.158l1.11.307c.362.104.72.228 1.069.37l.266.108c.092.036.181.081.266.133.341.207.655.456.936.74.283.293.51.637.67 1.013.043.168.077.339.103.51.036.12.059.245.067.37v.71c-.036.12-.053.245-.052.37-.001.125-.02.25-.056.37-.05.19-.112.376-.185.559a3.329 3.329 0 0 1-1.35 1.59c-.467.3-.965.548-1.487.74-.16.055-.324.096-.491.122a3.122 3.122 0 0 0-.496.118 2.59 2.59 0 0 1-.533.056c-.18 0-.36.018-.536.051h-.266a1.92 1.92 0 0 1-.37.03 1.92 1.92 0 0 1-.37-.03h-.296a.958.958 0 0 0-.344-.04.74.74 0 0 1-.322-.037 1.765 1.765 0 0 0-.347-.03c-.145-.033-.282-.066-.415-.092a2.833 2.833 0 0 1-.414-.119 6.051 6.051 0 0 1-1.457-.67 3.957 3.957 0 0 1-1.07-1.038 4.217 4.217 0 0 1-.41-.71 7.095 7.095 0 0 1-.292-.825.973.973 0 0 1-.04-.37c0-.126.023-.251.066-.37a.832.832 0 0 1 .266-.237c.12-.036.245-.052.37-.048.16-.013.321-.013.481 0 .158.02.313.042.466.067a.899.899 0 0 1 .307.096c.126.09.216.22.255.37.042.162.1.319.174.47.154.361.403.674.721.906.224.163.475.289.74.37.266.088.551.177.854.27l.563.077h.159c.162.042.328.06.495.056.175.003.349-.016.518-.056.1.003.199-.005.296-.026.107-.018.215-.03.318-.04.1-.007.198-.02.296-.041a3.58 3.58 0 0 0 1.228-.559c.341-.302.566-.714.636-1.165a.562.562 0 0 0 .03-.296 1.85 1.85 0 0 0-.056-.24 1.731 1.731 0 0 0-.37-.758 2.682 2.682 0 0 0-.614-.47c-.165-.11-.344-.2-.532-.266l-.588-.215a.595.595 0 0 0-.148-.026.296.296 0 0 1-.148-.051 11.935 11.935 0 0 0-1.883-.444 7.812 7.812 0 0 1-1.827-.492c-.181-.07-.348-.133-.51-.189a2.008 2.008 0 0 1-.452-.21 5.714 5.714 0 0 1-.935-.67 2.589 2.589 0 0 1-.67-.936 1.99 1.99 0 0 1-.118-.37c-.026-.122-.06-.255-.093-.4a2.319 2.319 0 0 1-.055-.739c.013-.237.04-.473.081-.706.03-.074.051-.149.067-.226a.621.621 0 0 1 .066-.204c.15-.392.373-.753.655-1.065.28-.307.598-.576.947-.802.278-.157.573-.281.88-.37a29.87 29.87 0 0 1 1.017-.281l.37-.052c.119-.019.244-.037.37-.052a.418.418 0 0 1 .215 0c.085-.004.148-.011.18-.048z"/></g><g><path fill="#fff" d="M14.513 10.7h.773a.655.655 0 0 1 .562.215c.094.162.145.346.148.533v8.411c-.007.366.038.73.133 1.084a2.73 2.73 0 0 0 1.605 1.682c.451.168.935.228 1.413.174.459-.023.91-.118 1.34-.28a3.961 3.961 0 0 0 1.401-.948c.377-.438.654-.953.814-1.509.051-.138.087-.282.107-.429 0-.14.044-.292.078-.455a.777.777 0 0 0 0-.24.451.451 0 0 1 .04-.24v-.544c.036-.163.045-.33.026-.496a5.395 5.395 0 0 1-.026-.521v-4.912-.685a1.017 1.017 0 0 1 .122-.573.48.48 0 0 1 .252-.174l.37-.092h.4c.214 0 .406 0 .573.026.16.013.304.102.388.24a.525.525 0 0 1 .133.388v12.528a.514.514 0 0 1-.203.414.784.784 0 0 1-.318.119 3.504 3.504 0 0 1-.47.051c-.16.015-.321.015-.481 0a.718.718 0 0 1-.333-.107.91.91 0 0 1-.24-.348 1.975 1.975 0 0 1-.041-.292c0-.126-.022-.244-.037-.37a.666.666 0 0 0-.107-.28.233.233 0 0 0-.24-.078.843.843 0 0 0-.43.307 2.356 2.356 0 0 1-.4.37 6.998 6.998 0 0 1-1.334.74 2.22 2.22 0 0 1-.603.173c-.21.028-.42.067-.625.118a.718.718 0 0 1-.281 0 .514.514 0 0 0-.282.026 1.054 1.054 0 0 1-.48 0h-.267a.876.876 0 0 0-.307-.052c-.103 0-.205-.008-.307-.025a.318.318 0 0 0-.2-.041.462.462 0 0 1-.229-.04l-.414-.108a2.422 2.422 0 0 1-.414-.16 3.395 3.395 0 0 1-1.162-.787 3.939 3.939 0 0 1-.762-1.19 2.545 2.545 0 0 1-.159-.493c-.037-.17-.07-.344-.107-.521a.74.74 0 0 1-.04-.307.843.843 0 0 0-.041-.333.392.392 0 0 1-.026-.148.522.522 0 0 0-.026-.174v-.266a.791.791 0 0 1 0-.256 2.427 2.427 0 0 0 0-.28v-8.149a.718.718 0 0 1 .107-.403.632.632 0 0 1 .4-.266.155.155 0 0 1 .107 0 .155.155 0 0 0 .1-.026z"/></g><g><path fill="#fff" d="M33.535 10.435a5.618 5.618 0 0 1 2.697.454 3.899 3.899 0 0 1 1.627 1.52c.108.18.194.373.255.574.063.207.119.414.174.629.092.363.145.735.16 1.11 0 .391.025.79.025 1.201v7.938a.58.58 0 0 1-.37.588c-.09.033-.182.056-.277.066H36.849a.521.521 0 0 1-.455-.229.803.803 0 0 1-.133-.5v-7.238c0-.48 0-.954-.026-1.427a3.514 3.514 0 0 0-.24-1.213 2.034 2.034 0 0 0-.64-.87 3.329 3.329 0 0 0-.991-.521 1.24 1.24 0 0 0-.333-.067 1.265 1.265 0 0 1-.333-.066 1.89 1.89 0 0 0-.414 0 2.455 2.455 0 0 0-.37.04.307.307 0 0 1-.185.041.488.488 0 0 0-.189 0c-.23.052-.447.111-.654.174a2.412 2.412 0 0 0-.574.251 1.638 1.638 0 0 0-.185.108 2.146 2.146 0 0 1-.188.107 3.765 3.765 0 0 0-1.361 2.001 1.85 1.85 0 0 0-.108.444 3.419 3.419 0 0 1-.081.44.403.403 0 0 0-.026.251.348.348 0 0 1-.026.23v.558a.448.448 0 0 0 0 .189c.004.08.004.16 0 .24v6.318a.825.825 0 0 1-.133.492.547.547 0 0 1-.47.229h-.68a2.685 2.685 0 0 1-.4-.026.662.662 0 0 1-.322-.133.555.555 0 0 1-.236-.477V11.396a.584.584 0 0 1 .107-.37.422.422 0 0 1 .266-.214 3.025 3.025 0 0 1 .722-.082c.138.001.276.01.414.026a.74.74 0 0 1 .281.082c.168.084.272.259.266.447-.012.213.015.426.082.629.039.11.114.205.214.266a.559.559 0 0 0 .525-.225c.117-.16.255-.303.41-.426.252-.177.504-.344.763-.495.283-.157.583-.281.895-.37.15-.06.306-.1.466-.119.165-.017.33-.044.492-.08.088-.019.177-.027.266-.027z"/></g><g><path fill="#fff" d="M41.65 5.438h.74c.21-.018.418.05.577.188.095.148.147.32.148.496v17.505a1.11 1.11 0 0 1-.133.589.322.322 0 0 1-.226.159c-.1 0-.218.044-.37.081h-.932a.518.518 0 0 1-.385-.188 1.087 1.087 0 0 1-.147-.533V6.88v-.625a.817.817 0 0 1 .122-.522.77.77 0 0 1 .4-.266.181.181 0 0 1 .117 0 .174.174 0 0 0 .09-.03z"/></g><g><path fill="#fff" d="M55.302 18.501a4.437 4.437 0 0 0-.126.729 2.422 2.422 0 0 1-.174.68 5.877 5.877 0 0 1-.932 1.576c-.399.465-.907.823-1.48 1.043a1.85 1.85 0 0 1-.399.119c-.14.03-.284.059-.425.096a.41.41 0 0 1-.214.04.525.525 0 0 0-.215 0 .825.825 0 0 1-.388.026 1.724 1.724 0 0 1-.333-.051.843.843 0 0 0-.252 0 .525.525 0 0 1-.255-.037c-.177-.056-.377-.115-.547-.174a2.638 2.638 0 0 1-.47-.23l-.237-.133a4.35 4.35 0 0 1-.24-.133 3.273 3.273 0 0 1-.895-.936 7.55 7.55 0 0 1-.629-1.202 1.565 1.565 0 0 1-.148-.466c-.026-.151-.055-.344-.092-.521l-.056-.322a2.083 2.083 0 0 1-.052-.48v-.534c.006-.08.006-.16 0-.24a.425.425 0 0 1 0-.185 1.547 1.547 0 0 1 .026-.348c.037-.207.082-.388.082-.577.017-.185.053-.368.107-.547a7.176 7.176 0 0 1 .695-1.48 3.798 3.798 0 0 1 1.04-1.109 4.1 4.1 0 0 1 .295-.215c.106-.07.222-.123.344-.159a2.83 2.83 0 0 1 .444-.173c.152-.045.315-.086.492-.123l.481-.077h.48c.154 0 .307.017.456.052.14.037.285.066.429.092.137.027.27.068.4.122a4.309 4.309 0 0 1 2.374 2.404c.056.13.102.263.137.4.034.146.078.29.133.429a7.24 7.24 0 0 1 .185 1.76v.455c.01.145-.004.29-.04.43zm2.378-1.524a1.002 1.002 0 0 1-.04-.28 1.01 1.01 0 0 0 0-.282c-.052-.229-.097-.458-.134-.68a5.24 5.24 0 0 0-.133-.63 8.185 8.185 0 0 1-.185-.558 3.769 3.769 0 0 0-.214-.536 5.818 5.818 0 0 0-2.205-2.626 7.028 7.028 0 0 0-3.953-.991c-.11.02-.222.033-.333.04h-.37c-.243.069-.49.118-.74.148-.238.023-.47.08-.692.17l-.74.308a4.343 4.343 0 0 0-.669.37c-.545.35-1.02.797-1.402 1.32a8.36 8.36 0 0 0-.972 1.779c-.092.196-.16.402-.204.614-.044.21-.092.425-.144.64-.019.089-.03.163-.04.225-.012.063-.041.141-.041.23a.85.85 0 0 0-.026.37.913.913 0 0 1-.026.37 1.624 1.624 0 0 0-.056.495c-.003.156.006.312.026.466.018.074.027.15.03.226v.23c.034.144.056.291.066.44.007.148.03.295.067.44a.418.418 0 0 1 0 .173.285.285 0 0 0 .04.174c.038.189.078.381.123.559.046.185.113.365.2.536a7.13 7.13 0 0 0 1.28 2.082 5.855 5.855 0 0 0 1.978 1.39c.215.09.436.167.666.241l.721.211.644.082h.159c.06.013.124.013.185 0a.522.522 0 0 1 .214 0 .969.969 0 0 0 .281.03c.103.002.206-.008.307-.03h.333c.118-.012.23-.041.337-.041l.68-.107c.213-.035.422-.088.625-.16a6.162 6.162 0 0 0 2.297-1.324 6.332 6.332 0 0 0 1.48-2.149c.091-.206.163-.42.214-.64.052-.232.115-.465.185-.695.036-.104.059-.212.067-.322.01-.108.033-.214.066-.318.019-.144.034-.292.04-.388.008-.096.042-.226.042-.37v-.266c.02-.156.026-.313.018-.47a1.779 1.779 0 0 0-.052-.496z"/></g><g><path fill="#fff" d="M67.193 20.502a2.87 2.87 0 0 1-.824 1.214c-.4.322-.845.584-1.32.776a1.594 1.594 0 0 1-.39.108c-.139.017-.277.043-.414.077a.74.74 0 0 1-.321.04.788.788 0 0 0-.318.042 1.48 1.48 0 0 1-.47.04 2.423 2.423 0 0 1-.466-.066 1.298 1.298 0 0 0-.266-.026c-.09 0-.18-.01-.267-.03a4.069 4.069 0 0 1-.74-.333 1.771 1.771 0 0 1-.558-.495 2.095 2.095 0 0 1-.23-.41 1.283 1.283 0 0 1-.092-.496 2.855 2.855 0 0 1 .107-1.003c.082-.261.218-.502.4-.706.184-.202.402-.37.643-.496.256-.136.523-.248.8-.333l.37-.092.388-.096c.283-.074.573-.113.865-.119.294-.006.585-.047.87-.122.066.004.133.004.2 0 .057-.005.115-.005.173 0l.536-.107c.178-.033.337-.07.477-.107a.577.577 0 0 1 .244-.052.259.259 0 0 0 .185-.056.773.773 0 0 1 .37.056.507.507 0 0 1 .215.37c.018.177.027.354.026.532v1.029a2.452 2.452 0 0 1-.174.869zm3.836 2.967a1.108 1.108 0 0 1-.078-.196.288.288 0 0 0-.052-.16.444.444 0 0 0-.321-.255c-.158-.029-.31-.079-.455-.148a.71.71 0 0 1-.348-.266 1.236 1.236 0 0 1-.159-.562c-.026-.248-.026-.488-.026-.74v-5.9c0-.513-.015-1.009-.04-1.479a3.491 3.491 0 0 0-.282-1.242 3.063 3.063 0 0 0-1.949-1.735 9.986 9.986 0 0 0-3.258-.43c-.037.042-.134.042-.296.042a1.287 1.287 0 0 0-.344 0c-.198.034-.39.06-.577.077a5.271 5.271 0 0 0-.548.082c-.681.176-1.33.46-1.923.84-.54.373-.979.873-1.28 1.456a5.118 5.118 0 0 0-.23.6 9.351 9.351 0 0 0-.17.654.74.74 0 0 0 0 .403.496.496 0 0 0 .16.267.836.836 0 0 0 .37.118c.345.054.697.054 1.043 0 .13-.01.257-.05.37-.118a.659.659 0 0 0 .255-.37c.041-.154.09-.306.148-.455.085-.192.188-.375.307-.547.1-.157.225-.297.37-.415.273-.19.57-.343.884-.455.252-.077.51-.13.773-.159a7.712 7.712 0 0 1 1.856 0c.261.028.518.09.762.185.335.118.633.32.866.588.23.3.39.648.47 1.017.071.242.071.499 0 .74a1.757 1.757 0 0 1-.267.548 1.48 1.48 0 0 1-.936.603c-.392.077-.81.173-1.253.28a2.957 2.957 0 0 1-.404.067c-.125.008-.25.03-.37.067-.12.03-.245.048-.37.052-.125 0-.25.018-.37.055-.266.052-.532.096-.802.133-.261.034-.52.087-.773.16a14.01 14.01 0 0 0-1.801.669 2.959 2.959 0 0 0-1.31 1.146c-.11.167-.2.347-.266.537-.07.214-.144.388-.214.584-.019.107-.041.21-.041.307a2.14 2.14 0 0 1-.04.281v.57c-.012.483.07.964.24 1.416.173.475.455.902.825 1.247a4.66 4.66 0 0 0 1.294.788c.128.056.262.097.4.122.144.026.284.055.429.092a.285.285 0 0 0 .144 0 .418.418 0 0 1 .174 0 .522.522 0 0 0 .24.056c.09 0 .181.008.27.025h.24c.185.037.375.037.56 0h.199c.077 0 .154-.01.23-.025.195-.037.395-.082.598-.082.195-.015.387-.051.574-.107.292-.084.579-.186.858-.307.254-.107.501-.23.74-.37.17-.114.334-.238.491-.37.16-.136.346-.236.548-.292a.196.196 0 0 1 .174.026l.122.107c.115.12.206.26.266.414.063.156.143.304.24.44.207.241.482.414.788.496.373.133.776.156 1.162.067a.946.946 0 0 1 .307-.056.717.717 0 0 0 .28-.051c.19-.092.347-.24.448-.426.11-.218.137-.47.078-.706z"/></g><g><path fill="#fff" d="M78.485 10.434a5.618 5.618 0 0 1 2.697.455 3.928 3.928 0 0 1 1.63 1.506c.109.18.195.372.256.573.06.207.119.414.17.629.094.363.148.735.163 1.11 0 .392.026.791.026 1.202v7.937a.58.58 0 0 1-.37.588c-.09.034-.185.056-.281.067H81.799a.522.522 0 0 1-.45-.23.803.803 0 0 1-.134-.48v-7.243c0-.48 0-.954-.03-1.427a3.351 3.351 0 0 0-.24-1.213 2.005 2.005 0 0 0-.64-.87 3.329 3.329 0 0 0-.987-.521 1.265 1.265 0 0 0-.333-.067 1.264 1.264 0 0 1-.337-.066 1.85 1.85 0 0 0-.41 0 2.456 2.456 0 0 0-.37.04.314.314 0 0 1-.189.041.473.473 0 0 0-.185 0 8.343 8.343 0 0 0-.654.174 2.345 2.345 0 0 0-.574.251c-.065.031-.128.067-.188.108-.06.04-.124.075-.189.107a3.788 3.788 0 0 0-1.361 2.001 2.045 2.045 0 0 0-.107.444 4.199 4.199 0 0 1-.078.44.436.436 0 0 0-.03.251c.02.078.01.16-.026.23v.558a.396.396 0 0 0 0 .189c.005.08.005.16 0 .24v6.318a.825.825 0 0 1-.133.492.536.536 0 0 1-.466.229h-.68a2.77 2.77 0 0 1-.403-.026.65.65 0 0 1-.319-.133.547.547 0 0 1-.214-.507V11.396a.562.562 0 0 1 .107-.37.403.403 0 0 1 .267-.214 2.84 2.84 0 0 1 .307-.056c.137-.016.275-.025.414-.026.138.001.277.01.414.026.098.01.193.037.281.082.175.087.28.27.266.466-.015.212.011.426.078.629.04.11.115.204.215.266a.551.551 0 0 0 .521-.24c.117-.162.257-.305.414-.426.248-.177.503-.344.762-.496.283-.158.583-.282.895-.37.15-.056.307-.092.466-.107.167-.017.333-.044.496-.081.088-.018.177-.027.266-.026z"/></g></g><g><path fill="#fab91b" d="M1.678 7.686a.925.925 0 0 1-.625-1.605C7.26.363 16.754-.025 21.863.256 29.27.659 36.26 2.87 39.264 5.763a.925.925 0 1 1-1.284 1.332C35.318 4.53 28.65 2.475 21.762 2.1 13.566 1.67 6.476 3.6 2.303 7.442a.92.92 0 0 1-.625.244z"/></g></g></g></g></svg>