<?xml version="1.0" encoding="UTF-8"?>
<svg id="Layer_2" data-name="Layer 2" xmlns="http://www.w3.org/2000/svg" viewBox="0 0 85.95 64.69">
  <defs>
    <style>
      .cls-1, .cls-2, .cls-3 {
        fill: #1f4497;
      }

      .cls-2 {
        stroke-width: .5px;
      }

      .cls-2, .cls-3 {
        stroke: #1f4696;
        stroke-miterlimit: 10;
      }
    </style>
  </defs>
  <g id="Layer_1-2" data-name="Layer 1">
    <g>
      <path class="cls-1" d="m28.96,37.48H10.63c-.64,0-1.19.55-1.19,1.19v5.02h0c0,.64.55,1.19,1.19,1.19h18.33v-7.39Zm-17.14,5.02v-2.65h16.87v2.65H11.82Z"/>
      <g>
        <path class="cls-1" d="m69.55,0H1.3C.59,0,0,.59,0,1.31v10.87c0,.72.59,1.3,1.31,1.3s1.3-.59,1.3-1.3V2.61h65.63v9.56c0,.72.58,1.3,1.3,1.3h0c.72,0,1.3-.59,1.3-1.3V1.31c0-.72-.59-1.31-1.31-1.31Z"/>
        <path class="cls-1" d="m70.85,12.18c0-.72-.59-1.31-1.3-1.31H1.31C.59,10.87,0,11.46,0,12.18v45.17c0,.72.59,1.31,1.31,1.31h27.9v-2.61H2.61V13.48h65.63v18.73h2.6V12.18Z"/>
        <path class="cls-1" d="m9.89,8.35c-.89,0-1.61-.72-1.61-1.61s.72-1.61,1.61-1.61,1.61.72,1.61,1.61-.72,1.61-1.61,1.61Z"/>
        <path class="cls-1" d="m16.21,8.35c-.89,0-1.61-.72-1.61-1.61s.72-1.61,1.61-1.61,1.61.72,1.61,1.61c0,.89-.72,1.61-1.61,1.61Z"/>
        <path class="cls-1" d="m22.54,8.35c-.89,0-1.61-.72-1.61-1.61s.72-1.61,1.61-1.61,1.61.72,1.61,1.61-.72,1.61-1.61,1.61Z"/>
      </g>
      <g>
        <path class="cls-3" d="m56.87,57.07c-2.37,0-4.59-.92-6.26-2.6-1.67-1.67-2.6-3.9-2.6-6.26s.92-4.59,2.6-6.26c1.67-1.67,3.9-2.6,6.26-2.6s4.59.92,6.26,2.6c1.67,1.67,2.6,3.9,2.6,6.26s-.92,4.59-2.6,6.26c-1.67,1.67-3.9,2.6-6.26,2.6Zm0-16.15c-4.02,0-7.29,3.27-7.29,7.29s3.27,7.29,7.29,7.29,7.29-3.27,7.29-7.29-3.27-7.29-7.29-7.29h0Z"/>
        <path class="cls-3" d="m84.66,64.19H29.08c-.43,0-.78-.35-.78-.78v-30.4c0-.43.35-.78.78-.78h55.58c.43,0,.78.35.78.78v30.4c0,.43-.35.78-.78.78h0Zm-54.79-1.57h54.01v-28.84H29.87v28.84Z"/>
        <path class="cls-3" d="m76.08,60.15h-38.41c-.43,0-.78-.35-.78-.78s.35-.78.78-.78h38.41c.43,0,.78.35.78.78s-.35.78-.78.78Z"/>
        <path class="cls-3" d="m76.08,37.83h-38.21c-.43,0-.78-.35-.78-.78s.35-.78.78-.78h38.21c.43,0,.78.35.78.78s-.35.78-.78.78h0Z"/>
        <path class="cls-3" d="m80.63,55.61c-.43,0-.78-.35-.78-.78v-13.23c0-.43.35-.78.78-.78s.78.35.78.78v13.23c0,.43-.35.78-.78.78h0Z"/>
        <path class="cls-3" d="m33.12,55.61c-.43,0-.78-.35-.78-.78v-13.24c0-.43.35-.78.78-.78s.78.35.78.78v13.24c0,.43-.35.78-.78.78Z"/>
        <path class="cls-3" d="m33.33,42.38c-.09,0-.17,0-.24,0-.43-.02-.77-.39-.74-.83.02-.43.39-.77.83-.74.05,0,.1,0,.16,0,2.07,0,3.76-1.69,3.76-3.76,0-.43.35-.78.78-.78s.78.35.78.78c0,2.94-2.39,5.33-5.33,5.33h0Z"/>
        <path class="cls-3" d="m80.63,42.38c-2.94,0-5.33-2.39-5.33-5.33,0-.43.35-.78.78-.78s.78.35.78.78c0,2.07,1.69,3.76,3.76,3.76.43,0,.78.35.78.78s-.35.78-.78.78Z"/>
        <path class="cls-3" d="m76.08,60.15c-.43,0-.78-.35-.78-.78,0-2.94,2.39-5.33,5.33-5.33.43,0,.78.35.78.78s-.35.78-.78.78c-2.07,0-3.76,1.69-3.76,3.76,0,.43-.35.78-.78.78h0Z"/>
        <path class="cls-3" d="m37.67,60.15c-.43,0-.78-.35-.78-.78,0-2.07-1.69-3.76-3.76-3.76-.43,0-.78-.35-.78-.78s.35-.78.78-.78c2.94,0,5.33,2.39,5.33,5.33,0,.43-.35.78-.78.78h0Z"/>
        <path class="cls-2" d="m59.93,48.71c-.22-.36-.54-.65-.93-.86-.41-.21-1.05-.43-1.91-.63-.89-.21-1.46-.42-1.7-.62-.21-.18-.31-.38-.31-.64,0-.28.11-.49.34-.66.32-.23.75-.35,1.3-.35s.94.11,1.22.33c.15.12.28.29.37.49.13.28.41.45.72.44h.04c.27-.01.5-.16.63-.39.13-.23.13-.5,0-.73-.13-.25-.31-.47-.54-.66-.54-.47-1.36-.7-2.44-.7-.66,0-1.24.1-1.7.3-.46.19-.81.48-1.05.86-.24.37-.37.78-.37,1.2,0,.67.25,1.23.78,1.7.37.33,1.03.62,1.97.85.76.19,1.24.32,1.45.39.33.12.56.26.7.43.14.17.22.38.22.62,0,.37-.16.69-.49.96-.32.27-.78.4-1.39.4s-1.04-.15-1.39-.44c-.21-.18-.38-.43-.5-.73-.12-.28-.39-.47-.7-.47-.03,0-.05,0-.07,0-.24.02-.45.16-.58.36-.12.21-.15.45-.06.66.18.45.44.83.78,1.12.58.5,1.42.75,2.51.75.75,0,1.39-.1,1.89-.31.49-.21.88-.52,1.14-.94.27-.42.4-.88.4-1.36,0-.54-.11-.99-.34-1.36h0Z"/>
        <path class="cls-2" d="m56.87,44.67c-.43,0-.78-.35-.78-.78v-.65c0-.43.35-.78.78-.78s.78.35.78.78v.65c0,.43-.35.78-.78.78Z"/>
        <path class="cls-2" d="m56.87,53.96c-.43,0-.78-.35-.78-.78v-.65c0-.43.35-.78.78-.78s.78.35.78.78v.65c0,.43-.35.78-.78.78Z"/>
      </g>
      <path class="cls-1" d="m59.66,21.36H10.64c-.73,0-1.28.55-1.19,1.28h0c0,.73.55,1.28,1.28,1.19h48.93c.73,0,1.28-.55,1.19-1.28h0c.09-.64-.55-1.19-1.19-1.19Z"/>
      <path class="cls-1" d="m59.66,27.75H10.64c-.73,0-1.28.55-1.19,1.28h0c0,.73.55,1.28,1.28,1.19h48.93c.73,0,1.28-.55,1.19-1.28h0c.09-.64-.55-1.19-1.19-1.19Z"/>
    </g>
  </g>
</svg>