<?xml version="1.0" encoding="UTF-8"?>
<svg id="Layer_2" data-name="Layer 2" xmlns="http://www.w3.org/2000/svg" viewBox="0 0 65.74 69.41">
  <defs>
    <style>
      .cls-1 {
        fill: #1f4696;
      }

      .cls-2 {
        fill: #1f4497;
      }

      .cls-3 {
        fill: none;
        stroke: #1f4696;
        stroke-linecap: round;
        stroke-miterlimit: 10;
        stroke-width: 2px;
      }
    </style>
  </defs>
  <g id="Layer_1-2" data-name="Layer 1">
    <g>
      <g>
        <path class="cls-2" d="m46.9,4.8l5.8,6.1h-5.8v-6.1Zm10.4,7.5c0-.1-.1-.3-.1-.2-.1-.4-.2-.6-.5-.8L46.7.6c-.3-.3-.7-.6-1.2-.6H1.4C.6,0,0,.6,0,1.4v66.7h0c0,.8.6,1.4,1.4,1.3l54.5-.1h0c.8,0,1.4-.6,1.4-1.4v-8.73l-2.8-4.49v11.92H2.7v.1V2.7h41.4v9.5h0c0,.8.6,1.4,1.4,1.3h9v8.36l2.8,3.93"/>
        <path class="cls-2" d="m9.3,13.6h12.7c.8,0,1.4-.6,1.3-1.4h0c0-.8-.6-1.4-1.4-1.3h-12.6c-.8,0-1.4.6-1.3,1.4h0c-.1.7.5,1.3,1.3,1.3Z"/>
        <path class="cls-2" d="m28.3,13.6h7.7c.8,0,1.4-.6,1.3-1.4h0c0-.8-.6-1.4-1.4-1.3h-7.7c-.8,0-1.4.6-1.3,1.4h0c0,.7.6,1.3,1.4,1.3Z"/>
        <path class="cls-2" d="m39.76,17.9H9.3c-.8,0-1.4.6-1.3,1.4h0c0,.8.6,1.4,1.4,1.3h27.73l2.63-2.7h0"/>
        <path class="cls-2" d="m46.42,44.46v15.31l-35.63.09v-29.71l21.07-.06.2-2.64H9.48c-.7,0-1.3.6-1.3,1.3v32.21c0,.9.6,1.5,1.3,1.4h38.23c.7,0,1.3-.59,1.3-1.29v-17.35l-2.6.75"/>
        <rect class="cls-2" x="26.58" y="28.32" width="2.6" height="33.34"/>
        <rect class="cls-2" x="19.66" y="24.19" width="2.6" height="22.1" transform="translate(56.2 14.27) rotate(90)"/>
        <polygon class="cls-2" points="9.91 43.02 9.91 40.42 35.37 40.42 40.53 43.02 9.91 43.02"/>
        <rect class="cls-2" x="27.88" y="29.25" width="2.6" height="37.91" transform="translate(77.38 19.02) rotate(90)"/>
        <rect class="cls-2" x="27.88" y="35.73" width="2.6" height="37.91" transform="translate(83.87 25.5) rotate(90)"/>
        <path class="cls-1" d="m65.2,58.72l-8.52-14.75c-.14-.24-.37-.42-.64-.49-.27-.07-.55-.03-.79.11l-.48.28-1.22-2.11c2.23-1.86,3.84-4.34,4.61-7.21.98-3.66.48-7.48-1.41-10.76-1.89-3.28-4.95-5.63-8.61-6.61-3.66-.98-7.48-.48-10.76,1.42-3.27,1.89-5.62,4.95-6.6,8.61s-.48,7.48,1.41,10.76c1.89,3.28,4.95,5.62,8.61,6.61,1.21.32,2.45.49,3.69.49,1.66,0,3.3-.3,4.86-.88l1.21,2.11-.49.28c-.24.14-.42.37-.49.64-.07.27-.04.55.1.79l8.52,14.75c.54.93,1.41,1.6,2.45,1.88.35.09.7.14,1.05.14.7,0,1.39-.19,2-.54,1.93-1.11,2.59-3.58,1.48-5.51Zm-15.78-16.82c-2.53,1.14-5.35,1.38-8.08.65-3.12-.83-5.72-2.83-7.33-5.63-3.33-5.77-1.35-13.17,4.42-16.5,1.84-1.06,3.92-1.62,6.02-1.62,1.06,0,2.12.14,3.15.42,3.12.83,5.72,2.83,7.33,5.63,1.61,2.79,2.04,6.04,1.2,9.17-.73,2.72-2.34,5.05-4.59,6.67-.18.13-.36.24-.54.35-.16.1-.32.22-.49.31-.17.1-.34.18-.52.27-.19.1-.38.2-.57.29Zm2.08,1.3s.04-.02.07-.04c.01,0,.03-.02.04-.03.08-.05.16-.09.24-.14l1.11,1.92-.57.33-1.11-1.92c.07-.04.15-.08.22-.12Zm1.02,4.39s0,0,.01,0l2.39-1.38s0,0,0,0l.48-.28,7.99,13.84c.26.45.33.97.19,1.47-.13.5-.45.92-.9,1.17-.44.26-.96.32-1.47.19-.5-.13-.92-.45-1.17-.9l-7.99-13.84.47-.27Z"/>
      </g>
      <path class="cls-3" d="m52.68,25.58c1.04,1.48,1.66,3.28,1.66,5.23,0,3.67-2.18,6.83-5.32,8.26"/>
    </g>
  </g>
</svg>