<?xml version="1.0" encoding="UTF-8"?>
<svg id="Layer_2" data-name="Layer 2" xmlns="http://www.w3.org/2000/svg" viewBox="0 0 70.85 58.65">
  <defs>
    <style>
      .cls-1 {
        fill: #1f4497;
      }
    </style>
  </defs>
  <g id="Layer_1-2" data-name="Layer 1">
    <g>
      <g>
        <path class="cls-1" d="m69.55,0H1.3C.59,0,0,.59,0,1.31v10.87c0,.72.59,1.3,1.31,1.3s1.3-.59,1.3-1.3V2.61h65.63v9.56c0,.72.58,1.3,1.3,1.3h0c.72,0,1.3-.59,1.3-1.3V1.31c0-.72-.59-1.31-1.31-1.31Z"/>
        <path class="cls-1" d="m69.55,10.87H1.31C.59,10.87,0,11.46,0,12.18v45.17c0,.72.59,1.31,1.31,1.31h68.24c.35,0,.68-.14.92-.38.25-.25.38-.57.38-.92V12.18c0-.72-.59-1.31-1.3-1.31Zm-1.3,2.61v42.56H2.61V13.48h65.63Z"/>
        <path class="cls-1" d="m9.89,8.35c-.89,0-1.61-.72-1.61-1.61s.72-1.61,1.61-1.61,1.61.72,1.61,1.61-.72,1.61-1.61,1.61Z"/>
        <path class="cls-1" d="m16.21,8.35c-.89,0-1.61-.72-1.61-1.61s.72-1.61,1.61-1.61,1.61.72,1.61,1.61c0,.89-.72,1.61-1.61,1.61Z"/>
        <path class="cls-1" d="m22.54,8.35c-.89,0-1.61-.72-1.61-1.61s.72-1.61,1.61-1.61,1.61.72,1.61,1.61-.72,1.61-1.61,1.61Z"/>
      </g>
      <g>
        <g>
          <path class="cls-1" d="m33.59,42.3c-1.94-1.01-2.69-3.41-1.67-5.34,1.01-1.94,3.41-2.69,5.34-1.67s2.69,3.41,1.67,5.34-3.41,2.68-5.34,1.67Zm2.65-5.07c-.86-.45-1.93-.11-2.37.74s-.11,1.93.74,2.37,1.93.11,2.37-.74.11-1.93-.74-2.37Z"/>
          <path class="cls-1" d="m37.48,38.19c-.14-.06-.27-.16-.38-.29-.4-.46-.35-1.16.11-1.55l4.24-3.69c.46-.4,1.16-.35,1.55.11.4.46.35,1.16-.11,1.55l-4.24,3.69c-.34.29-.79.35-1.17.18h0Z"/>
        </g>
        <path class="cls-1" d="m51.49,25.05l-.03-.03h0s-.03-.03-.05-.05h.01s0-.02,0-.02l-.02.02.02-.02s0,0,0,0l-.02.02c-2.1-2.13-4.56-3.79-7.31-4.94-2.75-1.15-5.66-1.74-8.65-1.74-3.04.03-5.99.65-8.78,1.84-2.79,1.19-5.29,2.89-7.42,5.06-2.13,2.17-3.78,4.69-4.92,7.51-1.14,2.82-1.7,5.78-1.67,8.82,0,.33.13.64.36.87.23.23.54.36.87.36h6.81c.33,0,.64-.13.87-.36.23-.23.36-.54.36-.87-.02-1.8.31-3.57.98-5.24.67-1.68,1.65-3.18,2.91-4.47,1.26-1.29,2.74-2.31,4.4-3.02,1.66-.71,3.42-1.08,5.22-1.11h.02s0,0,0,0c1.8.03,3.55.4,5.2,1.11,1.66.71,3.14,1.73,4.4,3.02,1.26,1.29,2.24,2.8,2.91,4.47.67,1.67,1,3.44.98,5.24,0,.33.13.64.36.87.23.23.54.36.87.36h6.82c.33,0,.64-.13.87-.36.23-.23.36-.54.36-.87,0-3.07-.58-6.06-1.74-8.9-1.16-2.84-2.84-5.38-4.99-7.57Zm-6.01,3.81l-.3-.24c-2.76-2.19-6.22-3.4-9.75-3.4-4,.04-7.83,1.55-10.77,4.27-2.94,2.71-4.77,6.4-5.13,10.39l-.06.41h-4.34l.03-.48c.37-5.15,2.65-9.94,6.41-13.48,3.76-3.54,8.68-5.53,13.85-5.59h0s0,0,0,0c4.74,0,9.33,1.71,12.93,4.78l.38.33-.37.34-2.62,2.41-.28.26Zm9.77,11.43h-3.47s-.41,0-.41,0l-.04-.4c-.33-3.33-1.65-6.44-3.81-8.99l-.28-.33.31-.29,2.59-2.39.34-.32.3.36c1.41,1.66,2.55,3.53,3.39,5.55.83,2.02,1.34,4.14,1.52,6.32l.04.48h-.48Z"/>
      </g>
      <path class="cls-1" d="m52.63,49.13H18.23c-.73,0-1.28.55-1.19,1.28h0c0,.73.55,1.28,1.28,1.19h34.31c.73,0,1.28-.55,1.19-1.28h0c.09-.64-.55-1.19-1.19-1.19Z"/>
    </g>
  </g>
</svg>